<?xml version="1.0" encoding="UTF-8" standalone="no"?>
<svg
   xmlns:ooo="http://xml.openoffice.org/svg/export"
   xmlns:osb="http://www.openswatchbook.org/uri/2009/osb"
   xmlns:dc="http://purl.org/dc/elements/1.1/"
   xmlns:cc="http://creativecommons.org/ns#"
   xmlns:rdf="http://www.w3.org/1999/02/22-rdf-syntax-ns#"
   xmlns:svg="http://www.w3.org/2000/svg"
   xmlns="http://www.w3.org/2000/svg"
   xmlns:xlink="http://www.w3.org/1999/xlink"
   xmlns:sodipodi="http://sodipodi.sourceforge.net/DTD/sodipodi-0.dtd"
   xmlns:inkscape="http://www.inkscape.org/namespaces/inkscape"
   inkscape:version="1.0.1 (3bc2e813f5, 2020-09-07)"
   sodipodi:docname="6x6.svg"
   id="svg338"
   version="1.1"
   viewBox="0 0 580 600"
   height="600mm"
   width="580mm">
  <metadata
     id="metadata344">
    <rdf:RDF>
      <cc:Work
         rdf:about="">
        <dc:format>image/svg+xml</dc:format>
        <dc:type
           rdf:resource="http://purl.org/dc/dcmitype/StillImage" />
        <dc:title>E2D-6x6</dc:title>
      </cc:Work>
    </rdf:RDF>
  </metadata>
  <defs
     id="defs342">
    <linearGradient
       id="linearGradient929"
       osb:paint="solid">
      <stop
         style="stop-color:#ffffff;stop-opacity:1;"
         offset="0"
         id="stop927" />
    </linearGradient>
    <inkscape:path-effect
       effect="ruler"
       id="path-effect1359"
       is_visible="true"
       lpeversion="1"
       unit="mm"
       mark_distance="10"
       mark_length="20"
       minor_mark_length="5"
       major_mark_steps="5"
       shift="0"
       offset="0"
       mark_dir="right"
       border_marks="none" />
    <inkscape:path-effect
       effect="construct_grid"
       id="path-effect1355"
       is_visible="true"
       lpeversion="1"
       nr_x="5"
       nr_y="5" />
    <inkscape:path-effect
       effect="ruler"
       id="path-effect1353"
       is_visible="true"
       lpeversion="1"
       unit="mm"
       mark_distance="10"
       mark_length="20"
       minor_mark_length="5"
       major_mark_steps="5"
       shift="4"
       offset="-10"
       mark_dir="left"
       border_marks="none" />
    <inkscape:path-effect
       effect="ruler"
       id="path-effect6311"
       is_visible="true"
       lpeversion="1"
       unit="mm"
       mark_distance="10"
       mark_length="14"
       minor_mark_length="7"
       major_mark_steps="5"
       shift="0"
       offset="0"
       mark_dir="left"
       border_marks="end" />
    <marker
       inkscape:stockid="Arrow1Lstart"
       orient="auto"
       refY="0"
       refX="0"
       id="Arrow1Lstart"
       style="overflow:visible"
       inkscape:isstock="true">
      <path
         id="path6023"
         d="M 0,0 5,-5 -12.5,0 5,5 Z"
         style="fill-rule:evenodd;stroke:#000000;stroke-width:1pt"
         transform="matrix(0.8,0,0,0.8,10,0)" />
    </marker>
    <inkscape:path-effect
       effect="ruler"
       id="path-effect6017"
       is_visible="true"
       lpeversion="1"
       unit="mm"
       mark_distance="20"
       mark_length="14"
       minor_mark_length="7"
       major_mark_steps="5"
       shift="0"
       offset="0"
       mark_dir="left"
       border_marks="both" />
    <clipPath
       clipPathUnits="userSpaceOnUse"
       id="presentation_clip_path">
      <rect
         id="rect7"
         height="6460"
         width="6460"
         y="0"
         x="0" />
    </clipPath>
    <clipPath
       clipPathUnits="userSpaceOnUse"
       id="presentation_clip_path_shrink">
      <rect
         id="rect10"
         height="6448"
         width="6448"
         y="6"
         x="6" />
    </clipPath>
    <g
       id="g14"
       ooo:id-list="id3 id4"
       ooo:slide="id1" />
    <g
       transform="matrix(4.8828125e-4,0,0,-4.8828125e-4,0,0)"
       id="bullet-char-template(57356)">
      <path
         id="path19"
         d="M 580,1141 1163,571 580,0 -4,571 Z" />
    </g>
    <g
       transform="matrix(4.8828125e-4,0,0,-4.8828125e-4,0,0)"
       id="bullet-char-template(57354)">
      <path
         id="path22"
         d="M 8,1128 H 1137 V 0 H 8 Z" />
    </g>
    <g
       transform="matrix(4.8828125e-4,0,0,-4.8828125e-4,0,0)"
       id="bullet-char-template(10146)">
      <path
         id="path25"
         d="M 174,0 602,739 174,1481 1456,739 Z M 1358,739 309,1346 659,739 Z" />
    </g>
    <g
       transform="matrix(4.8828125e-4,0,0,-4.8828125e-4,0,0)"
       id="bullet-char-template(10132)">
      <path
         id="path28"
         d="M 2015,739 1276,0 H 717 l 543,543 H 174 v 393 h 1086 l -543,545 h 557 z" />
    </g>
    <g
       transform="matrix(4.8828125e-4,0,0,-4.8828125e-4,0,0)"
       id="bullet-char-template(10007)">
      <path
         id="path31"
         d="m 0,-2 c -7,16 -16,29 -25,39 l 381,530 c -94,256 -141,385 -141,387 0,25 13,38 40,38 9,0 21,-2 34,-5 21,4 42,12 65,25 l 27,-13 111,-251 280,301 64,-25 24,25 c 21,-10 41,-24 62,-43 C 886,937 835,863 770,784 769,783 710,716 594,584 L 774,223 c 0,-27 -21,-55 -63,-84 l 16,-20 C 717,90 699,76 672,76 641,76 570,178 457,381 L 164,-76 c -22,-34 -53,-51 -92,-51 -42,0 -63,17 -64,51 -7,9 -10,24 -10,44 0,9 1,19 2,30 z" />
    </g>
    <g
       transform="matrix(4.8828125e-4,0,0,-4.8828125e-4,0,0)"
       id="bullet-char-template(10004)">
      <path
         id="path34"
         d="M 285,-33 C 182,-33 111,30 74,156 52,228 41,333 41,471 c 0,78 14,145 41,201 34,71 87,106 158,106 53,0 88,-31 106,-94 l 23,-176 c 8,-64 28,-97 59,-98 l 735,706 c 11,11 33,17 66,17 42,0 63,-15 63,-46 V 965 c 0,-36 -10,-64 -30,-84 L 442,47 C 390,-6 338,-33 285,-33 Z" />
    </g>
    <g
       transform="matrix(4.8828125e-4,0,0,-4.8828125e-4,0,0)"
       id="bullet-char-template(9679)">
      <path
         id="path37"
         d="M 813,0 C 632,0 489,54 383,161 276,268 223,411 223,592 c 0,181 53,324 160,431 106,107 249,161 430,161 179,0 323,-54 432,-161 108,-107 162,-251 162,-431 0,-180 -54,-324 -162,-431 C 1136,54 992,0 813,0 Z" />
    </g>
    <g
       transform="matrix(4.8828125e-4,0,0,-4.8828125e-4,0,0)"
       id="bullet-char-template(8226)">
      <path
         id="path40"
         d="m 346,457 c -73,0 -137,26 -191,78 -54,51 -81,114 -81,188 0,73 27,136 81,188 54,52 118,78 191,78 73,0 134,-26 185,-79 51,-51 77,-114 77,-187 0,-75 -25,-137 -76,-188 -50,-52 -112,-78 -186,-78 z" />
    </g>
    <g
       transform="matrix(4.8828125e-4,0,0,-4.8828125e-4,0,0)"
       id="bullet-char-template(8211)">
      <path
         id="path43"
         d="M -4,459 H 1135 V 606 H -4 Z" />
    </g>
    <g
       transform="matrix(4.8828125e-4,0,0,-4.8828125e-4,0,0)"
       id="bullet-char-template(61548)">
      <path
         id="path46"
         d="m 173,740 c 0,163 58,303 173,419 116,115 255,173 419,173 163,0 302,-58 418,-173 116,-116 174,-256 174,-419 0,-163 -58,-303 -174,-418 C 1067,206 928,148 765,148 601,148 462,206 346,322 231,437 173,577 173,740 Z" />
    </g>
    <marker
       style="overflow:visible"
       id="marker1451"
       refX="0"
       refY="0"
       orient="auto"
       inkscape:stockid="Arrow1Lstart"
       inkscape:isstock="true">
      <path
         transform="matrix(0.8,0,0,0.8,10,0)"
         style="fill:#ff0000;fill-opacity:1;fill-rule:evenodd;stroke:#ff0000;stroke-width:1pt;stroke-opacity:1"
         d="M 0,0 5,-5 -12.5,0 5,5 Z"
         id="path1449" />
    </marker>
    <marker
       style="overflow:visible"
       id="Arrow1Lend"
       refX="0"
       refY="0"
       orient="auto"
       inkscape:stockid="Arrow1Lend"
       inkscape:isstock="true">
      <path
         transform="matrix(-0.8,0,0,-0.8,-10,0)"
         style="fill:#ff0000;fill-opacity:1;fill-rule:evenodd;stroke:#ff0000;stroke-width:1pt;stroke-opacity:1"
         d="M 0,0 5,-5 -12.5,0 5,5 Z"
         id="path846" />
    </marker>
    <marker
       style="overflow:visible"
       id="marker1451-0"
       refX="0"
       refY="0"
       orient="auto"
       inkscape:stockid="Arrow1Lstart"
       inkscape:isstock="true">
      <path
         transform="matrix(0.8,0,0,0.8,10,0)"
         style="fill:#ff0000;fill-opacity:1;fill-rule:evenodd;stroke:#ff0000;stroke-width:1pt;stroke-opacity:1"
         d="M 0,0 5,-5 -12.5,0 5,5 Z"
         id="path1449-1" />
    </marker>
    <marker
       style="overflow:visible"
       id="Arrow1Lend-8"
       refX="0"
       refY="0"
       orient="auto"
       inkscape:stockid="Arrow1Lend"
       inkscape:isstock="true">
      <path
         transform="matrix(-0.8,0,0,-0.8,-10,0)"
         style="fill:#ff0000;fill-opacity:1;fill-rule:evenodd;stroke:#ff0000;stroke-width:1pt;stroke-opacity:1"
         d="M 0,0 5,-5 -12.5,0 5,5 Z"
         id="path846-3" />
    </marker>
    <linearGradient
       inkscape:collect="always"
       xlink:href="#linearGradient929"
       id="linearGradient931"
       x1="-0.94488186"
       y1="1134.3307"
       x2="50"
       y2="1134.3307"
       gradientUnits="userSpaceOnUse"
       gradientTransform="matrix(0.09420735,0,0,0.99824411,0.28976089,0.76380581)" />
    <inkscape:path-effect
       effect="ruler"
       id="path-effect1353-5"
       is_visible="true"
       lpeversion="1"
       unit="mm"
       mark_distance="10"
       mark_length="20"
       minor_mark_length="5"
       major_mark_steps="5"
       shift="0"
       offset="0"
       mark_dir="left"
       border_marks="none" />
  </defs>
  <sodipodi:namedview
     showguides="true"
     inkscape:current-layer="svg338"
     inkscape:window-maximized="1"
     inkscape:window-y="-8"
     inkscape:window-x="-8"
     inkscape:cy="322.56073"
     inkscape:cx="844.53207"
     inkscape:zoom="0.96"
     showgrid="false"
     id="namedview340"
     inkscape:window-height="1017"
     inkscape:window-width="1920"
     inkscape:pageshadow="2"
     inkscape:pageopacity="0"
     guidetolerance="10"
     gridtolerance="10"
     objecttolerance="10"
     borderopacity="1"
     bordercolor="#666666"
     pagecolor="#000000"
     inkscape:document-rotation="0"
     inkscape:pagecheckerboard="false"
     inkscape:snap-text-baseline="true"
     inkscape:snap-grids="false"
     inkscape:snap-page="false"
     inkscape:snap-to-guides="false"
     inkscape:document-units="mm"
     units="mm"
     inkscape:snap-object-midpoints="true"
     scale-x="1"
     inkscape:object-nodes="false"
     inkscape:snap-others="false"
     inkscape:snap-global="false"
     inkscape:lockguides="false" />
  <title
     id="title2">E2D-6x6</title>
  <g
     style="font-style:normal;font-variant:normal;font-weight:normal;font-stretch:normal;font-size:21.3333px;line-height:23.4375px;font-family:sans-serif;-inkscape-font-specification:'sans-serif, Normal';font-variant-ligatures:normal;font-variant-caps:normal;font-variant-numeric:normal;font-variant-east-asian:normal;fill:#ffffff;fill-opacity:1;fill-rule:evenodd;stroke-width:28.222;stroke-linejoin:round"
     id="g1187"
     transform="matrix(0.02994035,0,0,0.02920298,96.67676,187.40137)"
     inkscape:label="E2D">
    <g
       id="g50">
      <g
         class="Master_Slide"
         id="id2">
        <g
           class="Background"
           id="bg-id2" />
        <g
           class="BackgroundObjects"
           id="bo-id2" />
      </g>
    </g>
    <g
       transform="matrix(0.22489999,0,0,0.22489999,14732.617,12578.965)"
       id="g55"
       class="SlideGroup">
      <g
         id="g57">
        <g
           id="container-id1"
           transform="translate(-8.9742835,-116.66569)">
          <g
             class="Page"
             id="g61">
            <g
               id="g65"
               class="com.sun.star.drawing.ClosedBezierShape">
              <rect
                 class="BoundingBox"
                 x="1915"
                 y="2517"
                 width="2630"
                 height="2631"
                 id="rect68"
                 style="fill:none;stroke:none" />
            </g>
            <g
               id="g1227">
              <path
                 style="font-style:normal;font-variant:normal;font-weight:normal;font-stretch:normal;font-size:21.3333px;line-height:23.4375px;font-family:sans-serif;-inkscape-font-specification:'sans-serif, Normal';font-variant-ligatures:normal;font-variant-caps:normal;font-variant-numeric:normal;font-variant-east-asian:normal;fill:#ffffff;fill-opacity:0.5;fill-rule:evenodd;stroke:none;stroke-width:28.222;stroke-linejoin:round"
                 inkscape:connector-curvature="0"
                 id="path70"
                 d="m 4438.2824,3683.026 c -74,-692 -675,-1205 -1371,-1173 -695,33 -1243,603 -1250,1299 196,-50 392,-100 589,-150 150,-667 1047,-794 1376,-194 -653,165 -1306,331 -1958,497 73,692 674,1207 1370,1173 695,-33 1244,-602 1251,-1298 -197,50 -393,99 -589,149 -150,668 -1048,794 -1377,194 654,-165 1307,-331 1960,-497 -1,-5 -2,-9 -3,-14 z" />
              <g
                 transform="translate(-98.717119,-8.9742835)"
                 class="com.sun.star.drawing.ClosedBezierShape"
                 id="g72">
                <g
                   id="id4">
                  <rect
                     class="BoundingBox"
                     x="601"
                     y="1"
                     width="5258"
                     height="6460"
                     id="rect75"
                     style="fill:none;stroke:none" />
                  <path
                     d="m 5026,1 c -105,0 -191,85 -191,191 v 1558 2082 c 0,749 -520,1399 -1251,1565 -730,165 -1478,-197 -1802,-873 -323,-676 -135,-1487 454,-1951 588,-465 1419,-460 2002,10 125,102 314,12 313,-150 -2,-255 -4,-510 -6,-765 0,-83 -30,-130 -104,-168 C 3395,957 2116,1176 1310,2036 506,2897 373,4189 983,5196 1595,6203 2803,6680 3938,6362 5074,6045 5858,5011 5858,3832 V 767 C 5858,344 5515,1 5092,1 Z"
                     id="path77"
                     inkscape:connector-curvature="0"
                     style="fill:#265c9c;stroke:none" />
                </g>
              </g>
            </g>
          </g>
        </g>
      </g>
    </g>
  </g>
  <path
     style="display:inline;fill:none;stroke:#ffffff;stroke-width:0.978575;stroke-linecap:butt;stroke-linejoin:miter;stroke-miterlimit:4;stroke-dasharray:none;stroke-opacity:1"
     d="M -0.01071206,600.01071 H 302.60366 579.02705 m -579.03776206,0 v -5 m 9.99999996,5 v -5 m 10.0000001,5 v -5 m 10,5 v -5 m 10,5 v -20 m 10,20 v -5 m 10,5 v -5 m 10,5 v -5 m 10,5 v -5 m 10,5 v -20 m 10,20 v -5 m 10.000002,5 v -5 m 10,5 v -5 m 10,5 v -5 m 10,5 v -20 m 10,20 v -5 m 10,5 v -5 m 10,5 v -5 m 10,5 v -5 m 10,5 v -20 m 10,20 v -5 m 10,5 v -5 m 10,5 v -5 m 10,5 v -5 m 10,5 v -20 m 10,20 v -5 m 10,5 v -5 m 10,5 v -5 m 10,5 v -5 m 10,5 v -20 m 10,20 v -5 m 10,5 v -5 m 10,5 v -5 m 10,5 v -5 m 10,5 v -20 m 10,20 v -5 m 10,5 v -5 m 10,5 v -5 m 10,5 v -5 m 10,5 v -20 m 10,20 v -5 m 10,5 v -5 m 10,5 v -5 m 10,5 v -5 m 10,5 v -20 m 10,20 v -5 m 10,5 v -5 m 10,5 v -5 m 10,5 v -5 m 10,5 v -20 m 10,20 v -5 m 10,5 v -5 m 10,5 v -5 m 10,5 v -5 m 10,5 v -20 m 10,20 v -5 m 10,5 v -5 m 10,5 v -5"
     id="path1351"
     inkscape:path-effect="#path-effect1353"
     inkscape:original-d="M -0.01071206,600.01071 H 302.60366 579.02705"
     sodipodi:nodetypes="ccc"
     inkscape:label="Rule-H" />
  <path
     style="fill:none;stroke:#ffffff;stroke-width:1;stroke-linecap:butt;stroke-linejoin:miter;stroke-miterlimit:4;stroke-dasharray:none;stroke-opacity:1"
     d="M 0,4.5776366e-6 V 600 M 0,4.5776366e-6 H 20 M 0,10.000005 h 5 m -5,10 h 5 m -5,10 h 5 m -5,10 h 5 m -5,10 h 20 m -20,10 h 5 m -5,10 h 5 m -5,10 h 5 m -5,10 H 5 M 0,100 H 20 M 0,110 H 5 M 0,120 H 5 M 0,130 H 5 M 0,140 H 5 M 0,150 H 20 M 0,160 H 5 M 0,170 H 5 M 0,180 H 5 M 0,190 H 5 M 0,200 H 20 M 0,210 H 5 M 0,220 H 5 M 0,230 H 5 M 0,240 H 5 M 0,250 H 20 M 0,260 H 5 M 0,270 H 5 M 0,280 H 5 M 0,290 H 5 M 0,300 H 20 M 0,310 H 5 M 0,320 H 5 M 0,330 H 5 M 0,340 H 5 M 0,350 H 20 M 0,360 H 5 M 0,370 H 5 M 0,380 H 5 M 0,390 H 5 M 0,400 H 20 M 0,410 H 5 M 0,420 H 5 M 0,430 H 5 M 0,440 H 5 M 0,450 H 20 M 0,460 H 5 M 0,470 H 5 M 0,480 H 5 M 0,490 H 5 M 0,500 H 20 M 0,510 H 5 M 0,520 H 5 M 0,530 H 5 M 0,540 H 5 M 0,550 H 20 M 0,560 h 5 m -5,10 h 5 m -5,10 h 5 m -5,10 h 5"
     id="path1351-1"
     inkscape:path-effect="#path-effect1353-5"
     inkscape:original-d="M 0,4.5776366e-6 V 600"
     sodipodi:nodetypes="cc"
     inkscape:label="Rule-V" />
  <path
     style="fill:none;stroke:#ff0000;stroke-width:0.997924;stroke-linecap:butt;stroke-linejoin:bevel;stroke-miterlimit:4;stroke-dasharray:none;stroke-opacity:1;marker-start:url(#marker1451);marker-end:url(#Arrow1Lend);paint-order:stroke markers fill"
     d="m 0,300 c 240.69664,0 335.44018,0.75019 580,0"
     id="path1669"
     sodipodi:nodetypes="cc"
     inkscape:label="Horizontal" />
  <path
     style="fill:none;stroke:#ff0000;stroke-width:0.999445;stroke-linecap:butt;stroke-linejoin:bevel;stroke-miterlimit:4;stroke-dasharray:none;stroke-opacity:1;marker-start:url(#marker1451-0);marker-end:url(#Arrow1Lend-8);paint-order:stroke markers fill"
     d="M 289.99756,6.9124081e-6 C 289.99756,251.4228 290.07403,351.55174 289.99756,600"
     id="path1669-9"
     sodipodi:nodetypes="cc"
     inkscape:label="Vertical" />
  <g
     id="g2057"
     inkscape:label="100"
     transform="translate(-4.9999924)">
    <rect
       style="fill:none;fill-opacity:0.5;stroke:#008000;stroke-width:1;stroke-linejoin:bevel;stroke-miterlimit:4;stroke-dasharray:none;stroke-opacity:1;paint-order:stroke markers fill"
       id="rect2286"
       width="99.502487"
       height="99.502487"
       x="245.24875"
       y="250.24876"
       inkscape:label="10x10" />
    <text
       xml:space="preserve"
       style="font-style:normal;font-variant:normal;font-weight:bold;font-stretch:normal;font-size:5.29167px;line-height:6.20118px;font-family:Arial;-inkscape-font-specification:'Arial, Bold';font-variant-ligatures:normal;font-variant-caps:normal;font-variant-numeric:normal;font-variant-east-asian:normal;letter-spacing:0px;display:none;fill:#ffffff;stroke-width:0.264583"
       x="322.91141"
       y="348.1864"
       id="text1275"
       inkscape:label="text100X100"><tspan
         sodipodi:role="line"
         id="tspan1273"
         x="0"
         y="0"
         style="font-style:normal;font-variant:normal;font-weight:bold;font-stretch:normal;font-size:5.29167px;font-family:Arial;-inkscape-font-specification:'Arial, Bold';font-variant-ligatures:normal;font-variant-caps:normal;font-variant-numeric:normal;font-variant-east-asian:normal;fill:#ffffff;stroke-width:0.264583">100x100</tspan></text>
    <g
       aria-label="100x100"
       id="text1275-5"
       style="font-style:normal;font-variant:normal;font-weight:bold;font-stretch:normal;font-size:5.29167px;line-height:6.20117px;font-family:Arial;-inkscape-font-specification:'Arial, Bold';font-variant-ligatures:normal;font-variant-caps:normal;font-variant-numeric:normal;font-variant-east-asian:normal;letter-spacing:0px;fill:#ffffff;stroke-width:0.264583"
       inkscape:label="100X100">
      <path
         d="m 324.99397,348.1864 h -0.72606 v -2.73627 q -0.3979,0.37207 -0.93792,0.55036 v -0.65888 q 0.28422,-0.093 0.61753,-0.3514 0.33331,-0.26096 0.45734,-0.6072 h 0.58911 z"
         style="font-style:normal;font-variant:normal;font-weight:bold;font-stretch:normal;font-size:5.29167px;font-family:Arial;-inkscape-font-specification:'Arial, Bold';font-variant-ligatures:normal;font-variant-caps:normal;font-variant-numeric:normal;font-variant-east-asian:normal;fill:#ffffff;stroke-width:0.264583"
         id="path2173" />
      <path
         d="m 327.30649,344.38301 q 0.55035,0 0.86041,0.39274 0.36949,0.46509 0.36949,1.54255 0,1.07487 -0.37207,1.54512 -0.30748,0.38758 -0.85783,0.38758 -0.55294,0 -0.89142,-0.42375 -0.33848,-0.42633 -0.33848,-1.5167 0,-1.06971 0.37207,-1.53996 0.30748,-0.38758 0.85783,-0.38758 z m 0,0.60203 q -0.13177,0 -0.23513,0.0853 -0.10335,0.0827 -0.16019,0.29972 -0.0749,0.28164 -0.0749,0.94827 0,0.66662 0.0672,0.91725 0.0672,0.24805 0.16795,0.33073 0.10336,0.0827 0.23513,0.0827 0.13178,0 0.23513,-0.0827 0.10335,-0.0853 0.1602,-0.3023 0.0749,-0.27906 0.0749,-0.94568 0,-0.66663 -0.0672,-0.91468 -0.0672,-0.25063 -0.17054,-0.33331 -0.10076,-0.0853 -0.23254,-0.0853 z"
         style="font-style:normal;font-variant:normal;font-weight:bold;font-stretch:normal;font-size:5.29167px;font-family:Arial;-inkscape-font-specification:'Arial, Bold';font-variant-ligatures:normal;font-variant-caps:normal;font-variant-numeric:normal;font-variant-east-asian:normal;fill:#ffffff;stroke-width:0.264583"
         id="path2175" />
      <path
         d="m 330.24947,344.38301 q 0.55035,0 0.86041,0.39274 0.36949,0.46509 0.36949,1.54255 0,1.07487 -0.37208,1.54512 -0.30747,0.38758 -0.85782,0.38758 -0.55294,0 -0.89142,-0.42375 -0.33848,-0.42633 -0.33848,-1.5167 0,-1.06971 0.37207,-1.53996 0.30747,-0.38758 0.85783,-0.38758 z m 0,0.60203 q -0.13178,0 -0.23513,0.0853 -0.10336,0.0827 -0.1602,0.29972 -0.0749,0.28164 -0.0749,0.94827 0,0.66662 0.0672,0.91725 0.0672,0.24805 0.16795,0.33073 0.10335,0.0827 0.23513,0.0827 0.13177,0 0.23512,-0.0827 0.10336,-0.0853 0.1602,-0.3023 0.0749,-0.27906 0.0749,-0.94568 0,-0.66663 -0.0672,-0.91468 -0.0672,-0.25063 -0.17053,-0.33331 -0.10077,-0.0853 -0.23254,-0.0853 z"
         style="font-style:normal;font-variant:normal;font-weight:bold;font-stretch:normal;font-size:5.29167px;font-family:Arial;-inkscape-font-specification:'Arial, Bold';font-variant-ligatures:normal;font-variant-caps:normal;font-variant-numeric:normal;font-variant-east-asian:normal;fill:#ffffff;stroke-width:0.264583"
         id="path2177" />
      <path
         d="m 331.77134,348.1864 0.9896,-1.41335 -0.94826,-1.33067 h 0.88625 l 0.48576,0.75448 0.5116,-0.75448 h 0.85266 l -0.93018,1.29966 1.01544,1.44436 h -0.89142 l -0.5581,-0.85008 -0.56327,0.85008 z"
         style="font-style:normal;font-variant:normal;font-weight:bold;font-stretch:normal;font-size:5.29167px;font-family:Arial;-inkscape-font-specification:'Arial, Bold';font-variant-ligatures:normal;font-variant-caps:normal;font-variant-numeric:normal;font-variant-east-asian:normal;fill:#ffffff;stroke-width:0.264583"
         id="path2179" />
      <path
         d="m 336.76587,348.1864 h -0.72606 v -2.73627 q -0.39791,0.37207 -0.93792,0.55036 v -0.65888 q 0.28422,-0.093 0.61753,-0.3514 0.33331,-0.26096 0.45734,-0.6072 h 0.58911 z"
         style="font-style:normal;font-variant:normal;font-weight:bold;font-stretch:normal;font-size:5.29167px;font-family:Arial;-inkscape-font-specification:'Arial, Bold';font-variant-ligatures:normal;font-variant-caps:normal;font-variant-numeric:normal;font-variant-east-asian:normal;fill:#ffffff;stroke-width:0.264583"
         id="path2181" />
      <path
         d="m 339.07839,344.38301 q 0.55035,0 0.86041,0.39274 0.36949,0.46509 0.36949,1.54255 0,1.07487 -0.37207,1.54512 -0.30748,0.38758 -0.85783,0.38758 -0.55294,0 -0.89142,-0.42375 -0.33848,-0.42633 -0.33848,-1.5167 0,-1.06971 0.37207,-1.53996 0.30747,-0.38758 0.85783,-0.38758 z m 0,0.60203 q -0.13178,0 -0.23513,0.0853 -0.10335,0.0827 -0.1602,0.29972 -0.0749,0.28164 -0.0749,0.94827 0,0.66662 0.0672,0.91725 0.0672,0.24805 0.16795,0.33073 0.10335,0.0827 0.23513,0.0827 0.13177,0 0.23513,-0.0827 0.10335,-0.0853 0.16019,-0.3023 0.0749,-0.27906 0.0749,-0.94568 0,-0.66663 -0.0672,-0.91468 -0.0672,-0.25063 -0.17053,-0.33331 -0.10077,-0.0853 -0.23254,-0.0853 z"
         style="font-style:normal;font-variant:normal;font-weight:bold;font-stretch:normal;font-size:5.29167px;font-family:Arial;-inkscape-font-specification:'Arial, Bold';font-variant-ligatures:normal;font-variant-caps:normal;font-variant-numeric:normal;font-variant-east-asian:normal;fill:#ffffff;stroke-width:0.264583"
         id="path2183" />
      <path
         d="m 342.02136,344.38301 q 0.55036,0 0.86042,0.39274 0.36948,0.46509 0.36948,1.54255 0,1.07487 -0.37207,1.54512 -0.30747,0.38758 -0.85783,0.38758 -0.55293,0 -0.89141,-0.42375 -0.33849,-0.42633 -0.33849,-1.5167 0,-1.06971 0.37208,-1.53996 0.30747,-0.38758 0.85782,-0.38758 z m 0,0.60203 q -0.13177,0 -0.23512,0.0853 -0.10336,0.0827 -0.1602,0.29972 -0.0749,0.28164 -0.0749,0.94827 0,0.66662 0.0672,0.91725 0.0672,0.24805 0.16795,0.33073 0.10335,0.0827 0.23512,0.0827 0.13178,0 0.23513,-0.0827 0.10336,-0.0853 0.1602,-0.3023 0.0749,-0.27906 0.0749,-0.94568 0,-0.66663 -0.0672,-0.91468 -0.0672,-0.25063 -0.17053,-0.33331 -0.10077,-0.0853 -0.23255,-0.0853 z"
         style="font-style:normal;font-variant:normal;font-weight:bold;font-stretch:normal;font-size:5.29167px;font-family:Arial;-inkscape-font-specification:'Arial, Bold';font-variant-ligatures:normal;font-variant-caps:normal;font-variant-numeric:normal;font-variant-east-asian:normal;fill:#ffffff;stroke-width:0.264583"
         id="path2185" />
    </g>
  </g>
  <g
     id="g2102"
     inkscape:label="200"
     transform="translate(-5,4.2697037)">
    <rect
       style="fill:none;fill-opacity:0.5;stroke:#ffff00;stroke-width:1;stroke-linejoin:bevel;stroke-miterlimit:4;stroke-dasharray:none;stroke-opacity:1;paint-order:stroke markers fill"
       id="rect2286-3"
       width="199.00497"
       height="199.00497"
       x="195.49751"
       y="196.22781"
       inkscape:label="20x20" />
    <text
       xml:space="preserve"
       style="font-style:normal;font-variant:normal;font-weight:bold;font-stretch:normal;font-size:5.29167px;line-height:6.20117px;font-family:Arial;-inkscape-font-specification:'Arial, Bold';font-variant-ligatures:normal;font-variant-caps:normal;font-variant-numeric:normal;font-variant-east-asian:normal;letter-spacing:0px;fill:#ffffff;stroke-width:0.264583"
       x="372.66223"
       y="393.6684"
       id="text1275-8"
       inkscape:label="text200X200"><tspan
         sodipodi:role="line"
         id="tspan1273-6"
         x="372.66223"
         y="393.6684"
         style="font-style:normal;font-variant:normal;font-weight:bold;font-stretch:normal;font-size:5.29167px;font-family:Arial;-inkscape-font-specification:'Arial, Bold';font-variant-ligatures:normal;font-variant-caps:normal;font-variant-numeric:normal;font-variant-east-asian:normal;fill:#ffffff;stroke-width:0.264583">200x200</tspan></text>
    <g
       aria-label="200x200"
       id="text2260"
       style="font-style:normal;font-variant:normal;font-weight:bold;font-stretch:normal;font-size:5.29167px;line-height:6.20117px;font-family:Arial;-inkscape-font-specification:'Arial, Bold';font-variant-ligatures:normal;font-variant-caps:normal;font-variant-numeric:normal;font-variant-east-asian:normal;letter-spacing:0px;fill:#ffffff;stroke-width:0.264583"
       inkscape:label="text200X200">
      <path
         d="m 375.33907,392.99402 v 0.67438 h -2.54506 q 0.0413,-0.38241 0.24804,-0.72347 0.20671,-0.34365 0.81649,-0.90951 0.49093,-0.45734 0.60203,-0.62012 0.14986,-0.22479 0.14986,-0.44442 0,-0.24287 -0.13177,-0.37207 -0.12919,-0.13177 -0.35915,-0.13177 -0.22738,0 -0.36174,0.13694 -0.13436,0.13694 -0.15503,0.45475 l -0.72347,-0.0723 q 0.0646,-0.59945 0.40566,-0.86042 0.34107,-0.26096 0.85266,-0.26096 0.56069,0 0.88109,0.30231 0.32039,0.3023 0.32039,0.75189 0,0.2558 -0.093,0.48834 -0.0904,0.22996 -0.28938,0.48318 -0.13178,0.16794 -0.47543,0.48317 -0.34365,0.31523 -0.43666,0.41858 -0.0904,0.10335 -0.14728,0.20154 z"
         style="font-style:normal;font-variant:normal;font-weight:bold;font-stretch:normal;font-size:5.29167px;font-family:Arial;-inkscape-font-specification:'Arial, Bold';font-variant-ligatures:normal;font-variant-caps:normal;font-variant-numeric:normal;font-variant-east-asian:normal;fill:#ffffff;stroke-width:0.264583"
         id="path2262" />
      <path
         d="m 377.05731,389.86501 q 0.55036,0 0.86042,0.39274 0.36948,0.46509 0.36948,1.54254 0,1.07487 -0.37207,1.54513 -0.30747,0.38757 -0.85783,0.38757 -0.55293,0 -0.89141,-0.42375 -0.33849,-0.42633 -0.33849,-1.5167 0,-1.0697 0.37208,-1.53996 0.30747,-0.38757 0.85782,-0.38757 z m 0,0.60203 q -0.13177,0 -0.23512,0.0853 -0.10336,0.0827 -0.1602,0.29972 -0.0749,0.28164 -0.0749,0.94826 0,0.66663 0.0672,0.91726 0.0672,0.24805 0.16795,0.33073 0.10335,0.0827 0.23512,0.0827 0.13178,0 0.23513,-0.0827 0.10336,-0.0853 0.1602,-0.30231 0.0749,-0.27905 0.0749,-0.94568 0,-0.66662 -0.0672,-0.91467 -0.0672,-0.25063 -0.17053,-0.33331 -0.10077,-0.0853 -0.23255,-0.0853 z"
         style="font-style:normal;font-variant:normal;font-weight:bold;font-stretch:normal;font-size:5.29167px;font-family:Arial;-inkscape-font-specification:'Arial, Bold';font-variant-ligatures:normal;font-variant-caps:normal;font-variant-numeric:normal;font-variant-east-asian:normal;fill:#ffffff;stroke-width:0.264583"
         id="path2264" />
      <path
         d="m 380.00029,389.86501 q 0.55035,0 0.86041,0.39274 0.36949,0.46509 0.36949,1.54254 0,1.07487 -0.37207,1.54513 -0.30748,0.38757 -0.85783,0.38757 -0.55294,0 -0.89142,-0.42375 -0.33848,-0.42633 -0.33848,-1.5167 0,-1.0697 0.37207,-1.53996 0.30747,-0.38757 0.85783,-0.38757 z m 0,0.60203 q -0.13178,0 -0.23513,0.0853 -0.10335,0.0827 -0.1602,0.29972 -0.0749,0.28164 -0.0749,0.94826 0,0.66663 0.0672,0.91726 0.0672,0.24805 0.16795,0.33073 0.10335,0.0827 0.23513,0.0827 0.13177,0 0.23513,-0.0827 0.10335,-0.0853 0.16019,-0.30231 0.0749,-0.27905 0.0749,-0.94568 0,-0.66662 -0.0672,-0.91467 -0.0672,-0.25063 -0.17054,-0.33331 -0.10077,-0.0853 -0.23254,-0.0853 z"
         style="font-style:normal;font-variant:normal;font-weight:bold;font-stretch:normal;font-size:5.29167px;font-family:Arial;-inkscape-font-specification:'Arial, Bold';font-variant-ligatures:normal;font-variant-caps:normal;font-variant-numeric:normal;font-variant-east-asian:normal;fill:#ffffff;stroke-width:0.264583"
         id="path2266" />
      <path
         d="m 381.52216,393.6684 0.98961,-1.41336 -0.94827,-1.33066 h 0.88625 l 0.48576,0.75447 0.5116,-0.75447 h 0.85266 l -0.93017,1.29966 1.01544,1.44436 h -0.89142 l -0.55811,-0.85008 -0.56327,0.85008 z"
         style="font-style:normal;font-variant:normal;font-weight:bold;font-stretch:normal;font-size:5.29167px;font-family:Arial;-inkscape-font-specification:'Arial, Bold';font-variant-ligatures:normal;font-variant-caps:normal;font-variant-numeric:normal;font-variant-east-asian:normal;fill:#ffffff;stroke-width:0.264583"
         id="path2268" />
      <path
         d="m 387.11097,392.99402 v 0.67438 h -2.54507 q 0.0414,-0.38241 0.24805,-0.72347 0.20671,-0.34365 0.81649,-0.90951 0.49093,-0.45734 0.60203,-0.62012 0.14986,-0.22479 0.14986,-0.44442 0,-0.24287 -0.13177,-0.37207 -0.12919,-0.13177 -0.35915,-0.13177 -0.22738,0 -0.36174,0.13694 -0.13436,0.13694 -0.15503,0.45475 l -0.72347,-0.0723 q 0.0646,-0.59945 0.40566,-0.86042 0.34107,-0.26096 0.85266,-0.26096 0.56069,0 0.88109,0.30231 0.32039,0.3023 0.32039,0.75189 0,0.2558 -0.093,0.48834 -0.0904,0.22996 -0.28939,0.48318 -0.13177,0.16794 -0.47542,0.48317 -0.34365,0.31523 -0.43666,0.41858 -0.0904,0.10335 -0.14728,0.20154 z"
         style="font-style:normal;font-variant:normal;font-weight:bold;font-stretch:normal;font-size:5.29167px;font-family:Arial;-inkscape-font-specification:'Arial, Bold';font-variant-ligatures:normal;font-variant-caps:normal;font-variant-numeric:normal;font-variant-east-asian:normal;fill:#ffffff;stroke-width:0.264583"
         id="path2270" />
      <path
         d="m 388.82921,389.86501 q 0.55036,0 0.86042,0.39274 0.36948,0.46509 0.36948,1.54254 0,1.07487 -0.37207,1.54513 -0.30747,0.38757 -0.85783,0.38757 -0.55294,0 -0.89142,-0.42375 -0.33848,-0.42633 -0.33848,-1.5167 0,-1.0697 0.37207,-1.53996 0.30748,-0.38757 0.85783,-0.38757 z m 0,0.60203 q -0.13177,0 -0.23513,0.0853 -0.10335,0.0827 -0.16019,0.29972 -0.0749,0.28164 -0.0749,0.94826 0,0.66663 0.0672,0.91726 0.0672,0.24805 0.16794,0.33073 0.10336,0.0827 0.23513,0.0827 0.13178,0 0.23513,-0.0827 0.10335,-0.0853 0.1602,-0.30231 0.0749,-0.27905 0.0749,-0.94568 0,-0.66662 -0.0672,-0.91467 -0.0672,-0.25063 -0.17053,-0.33331 -0.10077,-0.0853 -0.23255,-0.0853 z"
         style="font-style:normal;font-variant:normal;font-weight:bold;font-stretch:normal;font-size:5.29167px;font-family:Arial;-inkscape-font-specification:'Arial, Bold';font-variant-ligatures:normal;font-variant-caps:normal;font-variant-numeric:normal;font-variant-east-asian:normal;fill:#ffffff;stroke-width:0.264583"
         id="path2272" />
      <path
         d="m 391.77219,389.86501 q 0.55035,0 0.86041,0.39274 0.36949,0.46509 0.36949,1.54254 0,1.07487 -0.37207,1.54513 -0.30748,0.38757 -0.85783,0.38757 -0.55294,0 -0.89142,-0.42375 -0.33848,-0.42633 -0.33848,-1.5167 0,-1.0697 0.37207,-1.53996 0.30747,-0.38757 0.85783,-0.38757 z m 0,0.60203 q -0.13178,0 -0.23513,0.0853 -0.10335,0.0827 -0.1602,0.29972 -0.0749,0.28164 -0.0749,0.94826 0,0.66663 0.0672,0.91726 0.0672,0.24805 0.16795,0.33073 0.10335,0.0827 0.23513,0.0827 0.13177,0 0.23513,-0.0827 0.10335,-0.0853 0.16019,-0.30231 0.0749,-0.27905 0.0749,-0.94568 0,-0.66662 -0.0672,-0.91467 -0.0672,-0.25063 -0.17053,-0.33331 -0.10077,-0.0853 -0.23254,-0.0853 z"
         style="font-style:normal;font-variant:normal;font-weight:bold;font-stretch:normal;font-size:5.29167px;font-family:Arial;-inkscape-font-specification:'Arial, Bold';font-variant-ligatures:normal;font-variant-caps:normal;font-variant-numeric:normal;font-variant-east-asian:normal;fill:#ffffff;stroke-width:0.264583"
         id="path2274" />
    </g>
  </g>
  <g
     id="g2169"
     inkscape:label="300"
     transform="translate(-5)">
    <rect
       style="fill:none;fill-opacity:0.5;stroke:#0000ff;stroke-width:1;stroke-linejoin:bevel;stroke-miterlimit:4;stroke-dasharray:none;stroke-opacity:1;paint-order:stroke markers fill"
       id="rect2286-3-9"
       width="298.50748"
       height="298.50748"
       x="145.74626"
       y="150.74626"
       inkscape:label="30x30" />
    <text
       xml:space="preserve"
       style="font-style:normal;font-variant:normal;font-weight:bold;font-stretch:normal;font-size:5.29167px;line-height:6.20118px;font-family:Arial;-inkscape-font-specification:'Arial, Bold';font-variant-ligatures:normal;font-variant-caps:normal;font-variant-numeric:normal;font-variant-east-asian:normal;letter-spacing:0px;display:inline;fill:#ffffff;stroke-width:0.264583"
       x="422.41342"
       y="447.68942"
       id="text1275-2"
       inkscape:label="text300X300"><tspan
         sodipodi:role="line"
         id="tspan2171"
         x="422.41342"
         y="447.68942">300x300</tspan></text>
    <g
       aria-label="300x300"
       id="text2279"
       style="font-style:normal;font-variant:normal;font-weight:bold;font-stretch:normal;font-size:5.29167px;line-height:6.20118px;font-family:Arial;-inkscape-font-specification:'Arial, Bold';font-variant-ligatures:normal;font-variant-caps:normal;font-variant-numeric:normal;font-variant-east-asian:normal;letter-spacing:0px;display:inline;fill:#ffffff;stroke-width:0.264583"
       inkscape:label="text300X300">
      <path
         d="m 422.61238,446.68432 0.7028,-0.0853 q 0.0336,0.26872 0.18086,0.41083 0.14728,0.14211 0.35657,0.14211 0.22479,0 0.37724,-0.17053 0.15503,-0.17054 0.15503,-0.45993 0,-0.27388 -0.14728,-0.43408 -0.14728,-0.16019 -0.35915,-0.16019 -0.13953,0 -0.33331,0.0543 l 0.0801,-0.5917 q 0.29456,0.008 0.44959,-0.12661 0.15503,-0.13694 0.15503,-0.36173 0,-0.19121 -0.11369,-0.30489 -0.11369,-0.11369 -0.30231,-0.11369 -0.18603,0 -0.31781,0.12919 -0.13177,0.12919 -0.16019,0.37724 l -0.66921,-0.11369 q 0.0698,-0.34365 0.20929,-0.54777 0.14211,-0.20671 0.39274,-0.32298 0.25321,-0.11886 0.56585,-0.11886 0.53486,0 0.85783,0.34107 0.26614,0.27905 0.26614,0.63045 0,0.49868 -0.54519,0.79582 0.32556,0.0698 0.51935,0.31264 0.19637,0.24288 0.19637,0.58653 0,0.49868 -0.36432,0.85008 -0.36432,0.3514 -0.90692,0.3514 -0.51418,0 -0.85266,-0.29456 -0.33848,-0.29714 -0.39274,-0.77514 z"
         id="path2281" />
      <path
         d="m 426.8085,443.88603 q 0.55036,0 0.86042,0.39275 0.36948,0.46508 0.36948,1.54254 0,1.07487 -0.37207,1.54512 -0.30747,0.38758 -0.85783,0.38758 -0.55293,0 -0.89141,-0.42375 -0.33849,-0.42633 -0.33849,-1.5167 0,-1.06971 0.37208,-1.53996 0.30747,-0.38758 0.85782,-0.38758 z m 0,0.60204 q -0.13177,0 -0.23512,0.0853 -0.10336,0.0827 -0.1602,0.29973 -0.0749,0.28163 -0.0749,0.94826 0,0.66662 0.0672,0.91726 0.0672,0.24804 0.16795,0.33073 0.10335,0.0827 0.23512,0.0827 0.13178,0 0.23513,-0.0827 0.10336,-0.0853 0.1602,-0.30231 0.0749,-0.27906 0.0749,-0.94568 0,-0.66663 -0.0672,-0.91467 -0.0672,-0.25064 -0.17053,-0.33332 -0.10077,-0.0853 -0.23255,-0.0853 z"
         id="path2283" />
      <path
         d="m 429.75148,443.88603 q 0.55035,0 0.86041,0.39275 0.36949,0.46508 0.36949,1.54254 0,1.07487 -0.37207,1.54512 -0.30748,0.38758 -0.85783,0.38758 -0.55294,0 -0.89142,-0.42375 -0.33848,-0.42633 -0.33848,-1.5167 0,-1.06971 0.37207,-1.53996 0.30748,-0.38758 0.85783,-0.38758 z m 0,0.60204 q -0.13178,0 -0.23513,0.0853 -0.10335,0.0827 -0.1602,0.29973 -0.0749,0.28163 -0.0749,0.94826 0,0.66662 0.0672,0.91726 0.0672,0.24804 0.16795,0.33073 0.10335,0.0827 0.23513,0.0827 0.13177,0 0.23513,-0.0827 0.10335,-0.0853 0.16019,-0.30231 0.0749,-0.27906 0.0749,-0.94568 0,-0.66663 -0.0672,-0.91467 -0.0672,-0.25064 -0.17054,-0.33332 -0.10077,-0.0853 -0.23254,-0.0853 z"
         id="path2285" />
      <path
         d="m 431.27335,447.68942 0.98961,-1.41335 -0.94827,-1.33067 h 0.88625 l 0.48576,0.75448 0.5116,-0.75448 h 0.85266 l -0.93017,1.29967 1.01544,1.44435 h -0.89142 l -0.55811,-0.85008 -0.56327,0.85008 z"
         id="path2287" />
      <path
         d="m 434.38427,446.68432 0.7028,-0.0853 q 0.0336,0.26872 0.18087,0.41083 0.14728,0.14211 0.35657,0.14211 0.22479,0 0.37724,-0.17053 0.15503,-0.17054 0.15503,-0.45993 0,-0.27388 -0.14728,-0.43408 -0.14728,-0.16019 -0.35915,-0.16019 -0.13953,0 -0.33332,0.0543 l 0.0801,-0.5917 q 0.29456,0.008 0.44959,-0.12661 0.15503,-0.13694 0.15503,-0.36173 0,-0.19121 -0.11369,-0.30489 -0.11369,-0.11369 -0.30231,-0.11369 -0.18603,0 -0.31781,0.12919 -0.13177,0.12919 -0.1602,0.37724 l -0.66921,-0.11369 q 0.0698,-0.34365 0.20929,-0.54777 0.14211,-0.20671 0.39275,-0.32298 0.25321,-0.11886 0.56585,-0.11886 0.53485,0 0.85783,0.34107 0.26614,0.27905 0.26614,0.63045 0,0.49868 -0.54519,0.79582 0.32556,0.0698 0.51935,0.31264 0.19637,0.24288 0.19637,0.58653 0,0.49868 -0.36432,0.85008 -0.36432,0.3514 -0.90692,0.3514 -0.51418,0 -0.85266,-0.29456 -0.33849,-0.29714 -0.39275,-0.77514 z"
         id="path2289" />
      <path
         d="m 438.5804,443.88603 q 0.55036,0 0.86042,0.39275 0.36948,0.46508 0.36948,1.54254 0,1.07487 -0.37207,1.54512 -0.30747,0.38758 -0.85783,0.38758 -0.55294,0 -0.89142,-0.42375 -0.33848,-0.42633 -0.33848,-1.5167 0,-1.06971 0.37207,-1.53996 0.30748,-0.38758 0.85783,-0.38758 z m 0,0.60204 q -0.13177,0 -0.23513,0.0853 -0.10335,0.0827 -0.16019,0.29973 -0.0749,0.28163 -0.0749,0.94826 0,0.66662 0.0672,0.91726 0.0672,0.24804 0.16794,0.33073 0.10336,0.0827 0.23513,0.0827 0.13178,0 0.23513,-0.0827 0.10335,-0.0853 0.1602,-0.30231 0.0749,-0.27906 0.0749,-0.94568 0,-0.66663 -0.0672,-0.91467 -0.0672,-0.25064 -0.17053,-0.33332 -0.10077,-0.0853 -0.23255,-0.0853 z"
         id="path2291" />
      <path
         d="m 441.52338,443.88603 q 0.55035,0 0.86041,0.39275 0.36949,0.46508 0.36949,1.54254 0,1.07487 -0.37207,1.54512 -0.30748,0.38758 -0.85783,0.38758 -0.55294,0 -0.89142,-0.42375 -0.33848,-0.42633 -0.33848,-1.5167 0,-1.06971 0.37207,-1.53996 0.30747,-0.38758 0.85783,-0.38758 z m 0,0.60204 q -0.13178,0 -0.23513,0.0853 -0.10335,0.0827 -0.1602,0.29973 -0.0749,0.28163 -0.0749,0.94826 0,0.66662 0.0672,0.91726 0.0672,0.24804 0.16795,0.33073 0.10335,0.0827 0.23513,0.0827 0.13177,0 0.23513,-0.0827 0.10335,-0.0853 0.16019,-0.30231 0.0749,-0.27906 0.0749,-0.94568 0,-0.66663 -0.0672,-0.91467 -0.0672,-0.25064 -0.17054,-0.33332 -0.10077,-0.0853 -0.23254,-0.0853 z"
         id="path2293" />
    </g>
  </g>
  <g
     id="g2307"
     inkscape:label="400"
     transform="translate(-5)">
    <rect
       style="fill:none;fill-opacity:0.5;stroke:#ff00ff;stroke-width:1;stroke-linejoin:bevel;stroke-miterlimit:4;stroke-dasharray:none;stroke-opacity:1;paint-order:stroke markers fill"
       id="rect2286-3-9-3"
       width="398.00995"
       height="398.00995"
       x="95.995026"
       y="100.99503"
       inkscape:label="40x40" />
    <text
       xml:space="preserve"
       style="font-style:normal;font-variant:normal;font-weight:bold;font-stretch:normal;font-size:5.29167px;line-height:6.20118px;font-family:Arial;-inkscape-font-specification:'Arial, Bold';font-variant-ligatures:normal;font-variant-caps:normal;font-variant-numeric:normal;font-variant-east-asian:normal;letter-spacing:0px;display:inline;fill:#ffffff;stroke-width:0.264583"
       x="472.16483"
       y="497.4404"
       id="text2298"
       inkscape:label="text400X400"><tspan
         sodipodi:role="line"
         id="tspan2302"
         x="472.16483"
         y="497.4404">400x400</tspan></text>
    <g
       aria-label="400x400"
       id="text2311"
       style="font-style:normal;font-variant:normal;font-weight:bold;font-stretch:normal;font-size:5.29167px;line-height:6.20118px;font-family:Arial;-inkscape-font-specification:'Arial, Bold';font-variant-ligatures:normal;font-variant-caps:normal;font-variant-numeric:normal;font-variant-east-asian:normal;letter-spacing:0px;display:inline;fill:#ffffff;stroke-width:0.264583"
       inkscape:label="text400X400">
      <path
         d="m 473.8133,497.4404 v -0.76223 h -1.55029 v -0.63562 l 1.64331,-2.40554 h 0.60978 v 2.40296 h 0.47026 v 0.6382 h -0.47026 v 0.76223 z m 0,-1.40043 v -1.2945 l -0.87074,1.2945 z"
         id="path2313" />
      <path
         d="m 476.55991,493.63701 q 0.55035,0 0.86041,0.39274 0.36949,0.46509 0.36949,1.54255 0,1.07487 -0.37207,1.54512 -0.30748,0.38757 -0.85783,0.38757 -0.55294,0 -0.89142,-0.42374 -0.33848,-0.42633 -0.33848,-1.51671 0,-1.0697 0.37207,-1.53996 0.30747,-0.38757 0.85783,-0.38757 z m 0,0.60203 q -0.13178,0 -0.23513,0.0853 -0.10335,0.0827 -0.1602,0.29972 -0.0749,0.28164 -0.0749,0.94827 0,0.66662 0.0672,0.91725 0.0672,0.24805 0.16795,0.33073 0.10335,0.0827 0.23513,0.0827 0.13177,0 0.23513,-0.0827 0.10335,-0.0853 0.16019,-0.30231 0.0749,-0.27905 0.0749,-0.94567 0,-0.66663 -0.0672,-0.91468 -0.0672,-0.25063 -0.17054,-0.33331 -0.10077,-0.0853 -0.23254,-0.0853 z"
         id="path2315" />
      <path
         d="m 479.50288,493.63701 q 0.55036,0 0.86042,0.39274 0.36948,0.46509 0.36948,1.54255 0,1.07487 -0.37207,1.54512 -0.30747,0.38757 -0.85783,0.38757 -0.55293,0 -0.89142,-0.42374 -0.33848,-0.42633 -0.33848,-1.51671 0,-1.0697 0.37207,-1.53996 0.30748,-0.38757 0.85783,-0.38757 z m 0,0.60203 q -0.13177,0 -0.23512,0.0853 -0.10336,0.0827 -0.1602,0.29972 -0.0749,0.28164 -0.0749,0.94827 0,0.66662 0.0672,0.91725 0.0672,0.24805 0.16795,0.33073 0.10335,0.0827 0.23512,0.0827 0.13178,0 0.23513,-0.0827 0.10335,-0.0853 0.1602,-0.30231 0.0749,-0.27905 0.0749,-0.94567 0,-0.66663 -0.0672,-0.91468 -0.0672,-0.25063 -0.17053,-0.33331 -0.10077,-0.0853 -0.23255,-0.0853 z"
         id="path2317" />
      <path
         d="m 481.02476,497.4404 0.9896,-1.41335 -0.94826,-1.33067 h 0.88625 l 0.48576,0.75448 0.51159,-0.75448 h 0.85267 l -0.93018,1.29966 1.01544,1.44436 h -0.89142 l -0.5581,-0.85008 -0.56328,0.85008 z"
         id="path2319" />
      <path
         d="m 485.5852,497.4404 v -0.76223 h -1.55029 v -0.63562 l 1.64331,-2.40554 h 0.60978 v 2.40296 h 0.47026 v 0.6382 H 486.288 v 0.76223 z m 0,-1.40043 v -1.2945 l -0.87075,1.2945 z"
         id="path2321" />
      <path
         d="m 488.33181,493.63701 q 0.55035,0 0.86041,0.39274 0.36949,0.46509 0.36949,1.54255 0,1.07487 -0.37207,1.54512 -0.30748,0.38757 -0.85783,0.38757 -0.55294,0 -0.89142,-0.42374 -0.33848,-0.42633 -0.33848,-1.51671 0,-1.0697 0.37207,-1.53996 0.30747,-0.38757 0.85783,-0.38757 z m 0,0.60203 q -0.13178,0 -0.23513,0.0853 -0.10335,0.0827 -0.1602,0.29972 -0.0749,0.28164 -0.0749,0.94827 0,0.66662 0.0672,0.91725 0.0672,0.24805 0.16795,0.33073 0.10335,0.0827 0.23513,0.0827 0.13177,0 0.23512,-0.0827 0.10336,-0.0853 0.1602,-0.30231 0.0749,-0.27905 0.0749,-0.94567 0,-0.66663 -0.0672,-0.91468 -0.0672,-0.25063 -0.17053,-0.33331 -0.10077,-0.0853 -0.23254,-0.0853 z"
         id="path2323" />
      <path
         d="m 491.27478,493.63701 q 0.55036,0 0.86042,0.39274 0.36948,0.46509 0.36948,1.54255 0,1.07487 -0.37207,1.54512 -0.30747,0.38757 -0.85783,0.38757 -0.55294,0 -0.89142,-0.42374 -0.33848,-0.42633 -0.33848,-1.51671 0,-1.0697 0.37207,-1.53996 0.30748,-0.38757 0.85783,-0.38757 z m 0,0.60203 q -0.13177,0 -0.23513,0.0853 -0.10335,0.0827 -0.16019,0.29972 -0.0749,0.28164 -0.0749,0.94827 0,0.66662 0.0672,0.91725 0.0672,0.24805 0.16794,0.33073 0.10336,0.0827 0.23513,0.0827 0.13178,0 0.23513,-0.0827 0.10335,-0.0853 0.1602,-0.30231 0.0749,-0.27905 0.0749,-0.94567 0,-0.66663 -0.0672,-0.91468 -0.0672,-0.25063 -0.17053,-0.33331 -0.10077,-0.0853 -0.23255,-0.0853 z"
         id="path2325" />
    </g>
  </g>
  <g
     id="g2337"
     inkscape:label="500"
     transform="translate(-5)">
    <rect
       style="fill:none;fill-opacity:0.5;stroke:#808000;stroke-width:1;stroke-linejoin:bevel;stroke-miterlimit:4;stroke-dasharray:none;stroke-opacity:1;paint-order:stroke markers fill"
       id="rect2286-3-9-3-7"
       width="497.51245"
       height="497.51245"
       x="46.243774"
       y="51.243778"
       inkscape:label="50x50" />
    <text
       xml:space="preserve"
       style="font-style:normal;font-variant:normal;font-weight:bold;font-stretch:normal;font-size:5.29167px;line-height:6.20118px;font-family:Arial;-inkscape-font-specification:'Arial, Bold';font-variant-ligatures:normal;font-variant-caps:normal;font-variant-numeric:normal;font-variant-east-asian:normal;letter-spacing:0px;display:inline;fill:#ffffff;stroke-width:0.264583"
       x="521.91687"
       y="547.19141"
       id="text2330"
       inkscape:label="text500X500"><tspan
         sodipodi:role="line"
         id="tspan2339"
         x="521.91687"
         y="547.19141">500x500</tspan></text>
    <g
       aria-label="500x500"
       id="text2343"
       style="font-style:normal;font-variant:normal;font-weight:bold;font-stretch:normal;font-size:5.29167px;line-height:6.20118px;font-family:Arial;-inkscape-font-specification:'Arial, Bold';font-variant-ligatures:normal;font-variant-caps:normal;font-variant-numeric:normal;font-variant-east-asian:normal;letter-spacing:0px;display:inline;fill:#ffffff;stroke-width:0.264583"
       inkscape:label="text500X500">
      <path
         d="m 522.152,546.2173 0.72347,-0.0749 q 0.031,0.24547 0.18345,0.39016 0.15245,0.14211 0.3514,0.14211 0.22738,0 0.38499,-0.18345 0.15761,-0.18604 0.15761,-0.55811 0,-0.34881 -0.15761,-0.52193 -0.15503,-0.1757 -0.40566,-0.1757 -0.31264,0 -0.56069,0.27647 l -0.58911,-0.0853 0.37207,-1.97146 h 1.91978 v 0.67954 h -1.36943 l -0.11369,0.64338 q 0.24288,-0.12144 0.4961,-0.12144 0.48317,0 0.81907,0.3514 0.3359,0.3514 0.3359,0.91209 0,0.46767 -0.2713,0.83457 -0.36949,0.50126 -1.02578,0.50126 -0.52452,0 -0.85525,-0.28163 -0.33073,-0.28164 -0.39532,-0.75707 z"
         id="path2345" />
      <path
         d="m 526.31195,543.38802 q 0.55036,0 0.86042,0.39274 0.36948,0.46509 0.36948,1.54254 0,1.07487 -0.37207,1.54513 -0.30747,0.38757 -0.85783,0.38757 -0.55293,0 -0.89142,-0.42375 -0.33848,-0.42633 -0.33848,-1.5167 0,-1.0697 0.37207,-1.53996 0.30748,-0.38757 0.85783,-0.38757 z m 0,0.60203 q -0.13177,0 -0.23512,0.0853 -0.10336,0.0827 -0.1602,0.29972 -0.0749,0.28164 -0.0749,0.94826 0,0.66663 0.0672,0.91726 0.0672,0.24805 0.16795,0.33073 0.10335,0.0827 0.23512,0.0827 0.13178,0 0.23513,-0.0827 0.10335,-0.0853 0.1602,-0.30231 0.0749,-0.27905 0.0749,-0.94568 0,-0.66662 -0.0672,-0.91467 -0.0672,-0.25063 -0.17053,-0.33331 -0.10077,-0.0853 -0.23255,-0.0853 z"
         id="path2347" />
      <path
         d="m 529.25493,543.38802 q 0.55035,0 0.86041,0.39274 0.36949,0.46509 0.36949,1.54254 0,1.07487 -0.37207,1.54513 -0.30748,0.38757 -0.85783,0.38757 -0.55294,0 -0.89142,-0.42375 -0.33848,-0.42633 -0.33848,-1.5167 0,-1.0697 0.37207,-1.53996 0.30747,-0.38757 0.85783,-0.38757 z m 0,0.60203 q -0.13178,0 -0.23513,0.0853 -0.10335,0.0827 -0.1602,0.29972 -0.0749,0.28164 -0.0749,0.94826 0,0.66663 0.0672,0.91726 0.0672,0.24805 0.16795,0.33073 0.10335,0.0827 0.23513,0.0827 0.13177,0 0.23513,-0.0827 0.10335,-0.0853 0.16019,-0.30231 0.0749,-0.27905 0.0749,-0.94568 0,-0.66662 -0.0672,-0.91467 -0.0672,-0.25063 -0.17053,-0.33331 -0.10077,-0.0853 -0.23254,-0.0853 z"
         id="path2349" />
      <path
         d="m 530.7768,547.19141 0.9896,-1.41336 -0.94826,-1.33066 h 0.88625 l 0.48576,0.75447 0.5116,-0.75447 h 0.85266 l -0.93018,1.29966 1.01545,1.44436 h -0.89142 l -0.55811,-0.85008 -0.56327,0.85008 z"
         id="path2351" />
      <path
         d="m 533.9239,546.2173 0.72347,-0.0749 q 0.031,0.24547 0.18345,0.39016 0.15244,0.14211 0.3514,0.14211 0.22737,0 0.38499,-0.18345 0.15761,-0.18604 0.15761,-0.55811 0,-0.34881 -0.15761,-0.52193 -0.15503,-0.1757 -0.40566,-0.1757 -0.31265,0 -0.56069,0.27647 l -0.58911,-0.0853 0.37207,-1.97146 h 1.91978 v 0.67954 h -1.36943 l -0.11369,0.64338 q 0.24288,-0.12144 0.4961,-0.12144 0.48317,0 0.81907,0.3514 0.3359,0.3514 0.3359,0.91209 0,0.46767 -0.27131,0.83457 -0.36948,0.50126 -1.02577,0.50126 -0.52452,0 -0.85525,-0.28163 -0.33073,-0.28164 -0.39532,-0.75707 z"
         id="path2353" />
      <path
         d="m 538.08385,543.38802 q 0.55036,0 0.86041,0.39274 0.36949,0.46509 0.36949,1.54254 0,1.07487 -0.37207,1.54513 -0.30747,0.38757 -0.85783,0.38757 -0.55294,0 -0.89142,-0.42375 -0.33848,-0.42633 -0.33848,-1.5167 0,-1.0697 0.37207,-1.53996 0.30748,-0.38757 0.85783,-0.38757 z m 0,0.60203 q -0.13177,0 -0.23513,0.0853 -0.10335,0.0827 -0.16019,0.29972 -0.0749,0.28164 -0.0749,0.94826 0,0.66663 0.0672,0.91726 0.0672,0.24805 0.16795,0.33073 0.10336,0.0827 0.23513,0.0827 0.13178,0 0.23513,-0.0827 0.10335,-0.0853 0.1602,-0.30231 0.0749,-0.27905 0.0749,-0.94568 0,-0.66662 -0.0672,-0.91467 -0.0672,-0.25063 -0.17053,-0.33331 -0.10077,-0.0853 -0.23255,-0.0853 z"
         id="path2355" />
      <path
         d="m 541.02683,543.38802 q 0.55035,0 0.86041,0.39274 0.36949,0.46509 0.36949,1.54254 0,1.07487 -0.37207,1.54513 -0.30748,0.38757 -0.85783,0.38757 -0.55294,0 -0.89142,-0.42375 -0.33848,-0.42633 -0.33848,-1.5167 0,-1.0697 0.37207,-1.53996 0.30747,-0.38757 0.85783,-0.38757 z m 0,0.60203 q -0.13178,0 -0.23513,0.0853 -0.10335,0.0827 -0.1602,0.29972 -0.0749,0.28164 -0.0749,0.94826 0,0.66663 0.0672,0.91726 0.0672,0.24805 0.16795,0.33073 0.10335,0.0827 0.23513,0.0827 0.13177,0 0.23513,-0.0827 0.10335,-0.0853 0.16019,-0.30231 0.0749,-0.27905 0.0749,-0.94568 0,-0.66662 -0.0672,-0.91467 -0.0672,-0.25063 -0.17053,-0.33331 -0.10077,-0.0853 -0.23254,-0.0853 z"
         id="path2357" />
    </g>
  </g>
</svg>
