<?xml version="1.0" encoding="UTF-8" standalone="no"?>
<svg
   inkscape:version="1.2.2 (732a01da63, 2022-12-09)"
   sodipodi:docname="i3Al.svg"
   id="svg338"
   version="1.1"
   viewBox="19 1 755.9055 755.90551"
   height="200mm"
   width="200mm"
   xmlns:inkscape="http://www.inkscape.org/namespaces/inkscape"
   xmlns:sodipodi="http://sodipodi.sourceforge.net/DTD/sodipodi-0.dtd"
   xmlns="http://www.w3.org/2000/svg"
   xmlns:svg="http://www.w3.org/2000/svg"
   xmlns:rdf="http://www.w3.org/1999/02/22-rdf-syntax-ns#"
   xmlns:cc="http://creativecommons.org/ns#"
   xmlns:dc="http://purl.org/dc/elements/1.1/"
   xmlns:ooo="http://xml.openoffice.org/svg/export">
  <metadata
     id="metadata344">
    <rdf:RDF>
      <cc:Work
         rdf:about="">
        <dc:format>image/svg+xml</dc:format>
        <dc:type
           rdf:resource="http://purl.org/dc/dcmitype/StillImage" />
        <dc:title>Bed_200x200</dc:title>
      </cc:Work>
    </rdf:RDF>
  </metadata>
  <defs
     id="defs342">
    <clipPath
       clipPathUnits="userSpaceOnUse"
       id="presentation_clip_path">
      <rect
         id="rect7"
         height="6460"
         width="6460"
         y="0"
         x="0" />
    </clipPath>
    <clipPath
       clipPathUnits="userSpaceOnUse"
       id="presentation_clip_path_shrink">
      <rect
         id="rect10"
         height="6448"
         width="6448"
         y="6"
         x="6" />
    </clipPath>
    <g
       id="g14"
       ooo:id-list="id3 id4"
       ooo:slide="id1" />
    <g
       transform="matrix(4.8828125e-4,0,0,-4.8828125e-4,0,0)"
       id="bullet-char-template(57356)">
      <path
         id="path19"
         d="M 580,1141 1163,571 580,0 -4,571 Z" />
    </g>
    <g
       transform="matrix(4.8828125e-4,0,0,-4.8828125e-4,0,0)"
       id="bullet-char-template(57354)">
      <path
         id="path22"
         d="M 8,1128 H 1137 V 0 H 8 Z" />
    </g>
    <g
       transform="matrix(4.8828125e-4,0,0,-4.8828125e-4,0,0)"
       id="bullet-char-template(10146)">
      <path
         id="path25"
         d="M 174,0 602,739 174,1481 1456,739 Z M 1358,739 309,1346 659,739 Z" />
    </g>
    <g
       transform="matrix(4.8828125e-4,0,0,-4.8828125e-4,0,0)"
       id="bullet-char-template(10132)">
      <path
         id="path28"
         d="M 2015,739 1276,0 H 717 l 543,543 H 174 v 393 h 1086 l -543,545 h 557 z" />
    </g>
    <g
       transform="matrix(4.8828125e-4,0,0,-4.8828125e-4,0,0)"
       id="bullet-char-template(10007)">
      <path
         id="path31"
         d="m 0,-2 c -7,16 -16,29 -25,39 l 381,530 c -94,256 -141,385 -141,387 0,25 13,38 40,38 9,0 21,-2 34,-5 21,4 42,12 65,25 l 27,-13 111,-251 280,301 64,-25 24,25 c 21,-10 41,-24 62,-43 C 886,937 835,863 770,784 769,783 710,716 594,584 L 774,223 c 0,-27 -21,-55 -63,-84 l 16,-20 C 717,90 699,76 672,76 641,76 570,178 457,381 L 164,-76 c -22,-34 -53,-51 -92,-51 -42,0 -63,17 -64,51 -7,9 -10,24 -10,44 0,9 1,19 2,30 z" />
    </g>
    <g
       transform="matrix(4.8828125e-4,0,0,-4.8828125e-4,0,0)"
       id="bullet-char-template(10004)">
      <path
         id="path34"
         d="M 285,-33 C 182,-33 111,30 74,156 52,228 41,333 41,471 c 0,78 14,145 41,201 34,71 87,106 158,106 53,0 88,-31 106,-94 l 23,-176 c 8,-64 28,-97 59,-98 l 735,706 c 11,11 33,17 66,17 42,0 63,-15 63,-46 V 965 c 0,-36 -10,-64 -30,-84 L 442,47 C 390,-6 338,-33 285,-33 Z" />
    </g>
    <g
       transform="matrix(4.8828125e-4,0,0,-4.8828125e-4,0,0)"
       id="bullet-char-template(9679)">
      <path
         id="path37"
         d="M 813,0 C 632,0 489,54 383,161 276,268 223,411 223,592 c 0,181 53,324 160,431 106,107 249,161 430,161 179,0 323,-54 432,-161 108,-107 162,-251 162,-431 0,-180 -54,-324 -162,-431 C 1136,54 992,0 813,0 Z" />
    </g>
    <g
       transform="matrix(4.8828125e-4,0,0,-4.8828125e-4,0,0)"
       id="bullet-char-template(8226)">
      <path
         id="path40"
         d="m 346,457 c -73,0 -137,26 -191,78 -54,51 -81,114 -81,188 0,73 27,136 81,188 54,52 118,78 191,78 73,0 134,-26 185,-79 51,-51 77,-114 77,-187 0,-75 -25,-137 -76,-188 -50,-52 -112,-78 -186,-78 z" />
    </g>
    <g
       transform="matrix(4.8828125e-4,0,0,-4.8828125e-4,0,0)"
       id="bullet-char-template(8211)">
      <path
         id="path43"
         d="M -4,459 H 1135 V 606 H -4 Z" />
    </g>
    <g
       transform="matrix(4.8828125e-4,0,0,-4.8828125e-4,0,0)"
       id="bullet-char-template(61548)">
      <path
         id="path46"
         d="m 173,740 c 0,163 58,303 173,419 116,115 255,173 419,173 163,0 302,-58 418,-173 116,-116 174,-256 174,-419 0,-163 -58,-303 -174,-418 C 1067,206 928,148 765,148 601,148 462,206 346,322 231,437 173,577 173,740 Z" />
    </g>
  </defs>
  <sodipodi:namedview
     showguides="true"
     inkscape:current-layer="g12140"
     inkscape:window-maximized="1"
     inkscape:window-y="-8"
     inkscape:window-x="-8"
     inkscape:cy="463.15925"
     inkscape:cx="61.882158"
     inkscape:zoom="0.78374771"
     showgrid="false"
     id="namedview340"
     inkscape:window-height="1017"
     inkscape:window-width="1920"
     inkscape:pageshadow="2"
     inkscape:pageopacity="0"
     guidetolerance="10"
     gridtolerance="10"
     objecttolerance="10"
     borderopacity="1"
     bordercolor="#666666"
     pagecolor="#000000"
     inkscape:document-rotation="0"
     inkscape:pagecheckerboard="false"
     inkscape:snap-text-baseline="true"
     inkscape:showpageshadow="2"
     inkscape:deskcolor="#000000"
     inkscape:lockguides="true"
     inkscape:document-units="mm" />
  <title
     id="title2">Bed_200x200</title>
  <g
     id="g12186"
     style="display:inline">
    <line
       id="line4"
       stroke-width="1.59849"
       stroke-linejoin="round"
       stroke-linecap="round"
       stroke="#ffffff"
       fill="none"
       y2="755.12457"
       x2="19.988163"
       y1="0.79794931"
       x1="19.988163" />
    <line
       id="line6"
       stroke-width="1.61781"
       stroke-linejoin="round"
       stroke-linecap="round"
       stroke="#ffffff"
       fill="none"
       y2="755.24579"
       x2="208.58476"
       y1="0.95888877"
       x1="208.58476" />
    <line
       id="line8"
       stroke-width="1.61782"
       stroke-linejoin="round"
       stroke-linecap="round"
       stroke="#ffffff"
       fill="none"
       y2="755.11798"
       x2="397.55826"
       y1="0.82710999"
       x1="397.55826" />
    <line
       id="line12"
       stroke-width="1.47909"
       stroke-linejoin="round"
       stroke-linecap="round"
       stroke="#ffffff"
       fill="none"
       y2="756.55719"
       x2="773.81598"
       y1="756.55719"
       x1="19.637182" />
    <line
       id="line16"
       stroke-width="1.46072"
       stroke-linejoin="round"
       stroke-linecap="round"
       stroke="#ffffff"
       fill="none"
       y2="567.6792"
       x2="774.18433"
       y1="567.6792"
       x1="38.618816" />
    <line
       id="line18"
       stroke-width="1.46073"
       stroke-linejoin="round"
       stroke-linecap="round"
       stroke="#ffffff"
       fill="none"
       y2="378.70291"
       x2="774.18433"
       y1="378.70291"
       x1="38.61882" />
    <line
       id="line20"
       stroke-width="1.46073"
       stroke-linejoin="round"
       stroke-linecap="round"
       stroke="#ffffff"
       fill="none"
       y2="189.72655"
       x2="774.18433"
       y1="189.72655"
       x1="38.61882" />
    <line
       id="line24"
       stroke-width="1.46518"
       stroke-linejoin="round"
       stroke-linecap="round"
       stroke="#ffffff"
       fill="none"
       y2="0.75066501"
       x2="19.612589"
       y1="0.75066501"
       x1="774.0882" />
    <line
       id="line26"
       stroke-width="1.70188"
       stroke-linejoin="round"
       stroke-linecap="round"
       stroke="#ffffff"
       fill="none"
       y2="717.45923"
       x2="586.57776"
       y1="1.0292081"
       x1="586.57776" />
    <line
       id="line30"
       stroke-width="1.74633"
       stroke-linejoin="round"
       stroke-linecap="round"
       stroke="#ffffff"
       fill="none"
       y2="755.07288"
       x2="775.81976"
       y1="0.91397047"
       x1="775.81976" />
  </g>
  <g
     id="g12091"
     style="display:inline"
     inkscape:label="g12091"
     transform="matrix(0.9753308,0,0,0.99897521,19.387788,0.4016832)">
    <line
       id="line58"
       stroke-width="0.38574"
       stroke-linejoin="round"
       stroke-linecap="round"
       stroke="#ffffff"
       fill="none"
       y2="604.93341"
       x2="774.60822"
       y1="604.93341"
       x1="19.092533" />
    <line
       id="line60"
       stroke-width="0.38574"
       stroke-linejoin="round"
       stroke-linecap="round"
       stroke="#ffffff"
       fill="none"
       y2="642.7287"
       x2="774.60822"
       y1="642.7287"
       x1="19.092533" />
    <line
       id="line62"
       stroke-width="0.385739"
       stroke-linejoin="round"
       stroke-linecap="round"
       stroke="#ffffff"
       fill="none"
       y2="680.526"
       x2="774.60822"
       y1="680.526"
       x1="19.092533" />
    <line
       id="line64"
       stroke-width="0.35563"
       stroke-linejoin="round"
       stroke-linecap="round"
       stroke="#ffffff"
       fill="none"
       y2="718.31482"
       x2="661.23761"
       y1="718.31482"
       x1="19.063513" />
    <line
       id="line66"
       stroke-width="0.385739"
       stroke-linejoin="round"
       stroke-linecap="round"
       stroke="#ffffff"
       fill="none"
       y2="529.3429"
       x2="774.60822"
       y1="529.3429"
       x1="19.092527" />
    <line
       id="line68"
       stroke-width="0.385739"
       stroke-linejoin="round"
       stroke-linecap="round"
       stroke="#ffffff"
       fill="none"
       y2="491.54761"
       x2="774.60815"
       y1="491.54761"
       x1="19.092527" />
    <line
       id="line70"
       stroke-width="0.385739"
       stroke-linejoin="round"
       stroke-linecap="round"
       stroke="#ffffff"
       fill="none"
       y2="415.95908"
       x2="774.60999"
       y1="415.95908"
       x1="19.094286" />
    <line
       id="line72"
       stroke-width="0.385739"
       stroke-linejoin="round"
       stroke-linecap="round"
       stroke="#ffffff"
       fill="none"
       y2="453.75235"
       x2="774.60822"
       y1="453.75235"
       x1="19.092527" />
    <line
       id="line74"
       stroke-width="0.385739"
       stroke-linejoin="round"
       stroke-linecap="round"
       stroke="#ffffff"
       fill="none"
       y2="340.36652"
       x2="774.60822"
       y1="340.36652"
       x1="19.092527" />
    <line
       id="line76"
       stroke-width="0.385739"
       stroke-linejoin="round"
       stroke-linecap="round"
       stroke="#ffffff"
       fill="none"
       y2="302.57126"
       x2="774.60822"
       y1="302.57126"
       x1="19.092527" />
    <line
       id="line78"
       stroke-width="0.385739"
       stroke-linejoin="round"
       stroke-linecap="round"
       stroke="#ffffff"
       fill="none"
       y2="264.77597"
       x2="774.60822"
       y1="264.77597"
       x1="19.092527" />
    <line
       id="line80"
       stroke-width="0.385739"
       stroke-linejoin="round"
       stroke-linecap="round"
       stroke="#ffffff"
       fill="none"
       y2="226.98071"
       x2="774.60822"
       y1="226.98071"
       x1="19.092527" />
    <line
       id="line82"
       stroke-width="0.385739"
       stroke-linejoin="round"
       stroke-linecap="round"
       stroke="#ffffff"
       fill="none"
       y2="151.39017"
       x2="774.60822"
       y1="151.39017"
       x1="19.092527" />
    <line
       id="line84"
       stroke-width="0.385751"
       stroke-linejoin="round"
       stroke-linecap="round"
       stroke="#ffffff"
       fill="none"
       y2="113.5949"
       x2="774.60822"
       y1="113.5949"
       x1="19.092533" />
    <line
       id="line86"
       stroke-width="0.385739"
       stroke-linejoin="round"
       stroke-linecap="round"
       stroke="#ffffff"
       fill="none"
       y2="75.799622"
       x2="774.60822"
       y1="75.799622"
       x1="19.092527" />
    <line
       id="line88"
       stroke-width="0.385739"
       stroke-linejoin="round"
       stroke-linecap="round"
       stroke="#ffffff"
       fill="none"
       y2="38.004345"
       x2="774.60822"
       y1="38.004345"
       x1="19.092527"
       style="fill:#ff00ff" />
  </g>
  <g
     id="g12054"
     style="display:inline"
     transform="matrix(0.99878248,0,0,0.98924399,0.46760029,-0.10753138)">
    <line
       id="line36"
       stroke-width="0.421727"
       stroke-linejoin="round"
       stroke-linecap="round"
       stroke="#ffffff"
       fill="none"
       y2="755.76147"
       x2="132.47037"
       y1="0.81621873"
       x1="132.47037" />
    <line
       id="line38"
       stroke-width="0.421727"
       stroke-linejoin="round"
       stroke-linecap="round"
       stroke="#ffffff"
       fill="none"
       y2="755.76111"
       x2="170.26508"
       y1="0.81585556"
       x1="170.26508" />
    <line
       id="line40"
       stroke-width="0.421727"
       stroke-linejoin="round"
       stroke-linecap="round"
       stroke="#ffffff"
       fill="none"
       y2="755.76111"
       x2="245.85448"
       y1="0.81585556"
       x1="245.85448" />
    <line
       id="line42"
       stroke-width="0.421727"
       stroke-linejoin="round"
       stroke-linecap="round"
       stroke="#ffffff"
       fill="none"
       y2="755.76111"
       x2="283.64917"
       y1="0.81585556"
       x1="283.64917" />
    <line
       id="line44"
       stroke-width="0.421727"
       stroke-linejoin="round"
       stroke-linecap="round"
       stroke="#ffffff"
       fill="none"
       y2="755.76111"
       x2="359.23856"
       y1="0.81585556"
       x1="359.23856" />
    <line
       id="line46"
       stroke-width="0.421727"
       stroke-linejoin="round"
       stroke-linecap="round"
       stroke="#ffffff"
       fill="none"
       y2="755.76111"
       x2="321.44388"
       y1="0.81585556"
       x1="321.44388" />
    <line
       id="line48"
       stroke-width="0.421727"
       stroke-linejoin="round"
       stroke-linecap="round"
       stroke="#ffffff"
       fill="none"
       y2="755.76111"
       x2="434.82797"
       y1="0.81585556"
       x1="434.82797" />
    <line
       id="line50"
       stroke-width="0.416557"
       stroke-linejoin="round"
       stroke-linecap="round"
       stroke="#ffffff"
       fill="none"
       y2="737.33905"
       x2="548.21637"
       y1="0.80015081"
       x1="548.21637" />
    <line
       id="line54"
       stroke-width="0.421878"
       stroke-linejoin="round"
       stroke-linecap="round"
       stroke="#ffffff"
       fill="none"
       y2="756.28448"
       x2="56.903736"
       y1="0.80624521"
       x1="56.903736" />
    <line
       id="line56"
       stroke-width="0.421727"
       stroke-linejoin="round"
       stroke-linecap="round"
       stroke="#ffffff"
       fill="none"
       y2="755.22296"
       x2="94.679642"
       y1="0.27773565"
       x1="94.679642" />
    <line
       id="line90"
       stroke-width="0.45536"
       stroke-linejoin="round"
       stroke-linecap="round"
       stroke="#ffffff"
       fill="none"
       y2="756.32562"
       x2="472.63654"
       y1="0.88129878"
       x1="472.63654" />
    <line
       id="line94"
       stroke-width="0.449612"
       stroke-linejoin="round"
       stroke-linecap="round"
       stroke="#ffffff"
       fill="none"
       y2="737.36688"
       x2="510.43179"
       y1="0.87551361"
       x1="510.43179" />
    <line
       id="line98"
       stroke-width="0.449612"
       stroke-linejoin="round"
       stroke-linecap="round"
       stroke="#ffffff"
       fill="none"
       y2="737.36688"
       x2="623.81763"
       y1="0.87551361"
       x1="623.81763" />
    <line
       id="line102"
       stroke-width="0.449612"
       stroke-linejoin="round"
       stroke-linecap="round"
       stroke="#ffffff"
       fill="none"
       y2="737.36688"
       x2="661.61292"
       y1="0.87551361"
       x1="661.61292" />
    <line
       id="line106"
       stroke-width="0.431691"
       stroke-linejoin="round"
       stroke-linecap="round"
       stroke="#ffffff"
       fill="none"
       y2="680.23602"
       x2="699.4082"
       y1="1.2852433"
       x1="699.4082" />
    <line
       id="line110"
       stroke-width="0.45536"
       stroke-linejoin="round"
       stroke-linecap="round"
       stroke="#ffffff"
       fill="none"
       y2="756.32562"
       x2="737.20245"
       y1="0.88129878"
       x1="737.20245" />
  </g>
  <g
     id="g12140"
     style="display:inline"
     inkscape:label="NB"
     transform="translate(0,-14.136291)">
    <path
       id="path132"
       fill="#ffffff"
       d="m 54.803041,764.38524 a 3.33,3.33 0 0 0 0.56,0 2.26,2.26 0 0 0 0.5,-0.16 1.32,1.32 0 0 0 0.37,-0.29 0.92,0.92 0 0 0 0.21,-0.43 h 0.74 v 5.6 h -1 v -4 h -1.38 z" />
    <path
       id="path134"
       fill="#ffffff"
       d="m 96.428318,769.22526 h -3.83 a 2.35,2.35 0 0 1 0.34,-1.22 3.21,3.21 0 0 1 0.9,-0.9 l 0.56,-0.39 a 4.56,4.56 0 0 0 0.55,-0.4 2.56,2.56 0 0 0 0.41,-0.47 1.23,1.23 0 0 0 0.17,-0.58 2.11,2.11 0 0 0 0,-0.33 0.83,0.83 0 0 0 -0.14,-0.32 0.76,0.76 0 0 0 -0.29,-0.24 1,1 0 0 0 -0.48,-0.11 0.88,0.88 0 0 0 -0.45,0.11 0.83,0.83 0 0 0 -0.29,0.3 1.43,1.43 0 0 0 -0.16,0.44 2.53,2.53 0 0 0 -0.06,0.56 h -0.93 a 2.93,2.93 0 0 1 0.12,-0.86 1.91,1.91 0 0 1 0.37,-0.69 1.83,1.83 0 0 1 0.61,-0.45 2.16,2.16 0 0 1 1.68,0 1.64,1.64 0 0 1 0.56,0.43 1.56,1.56 0 0 1 0.3,0.55 2.05,2.05 0 0 1 0.09,0.58 1.74,1.74 0 0 1 -0.11,0.61 2.06,2.06 0 0 1 -0.28,0.5 2.63,2.63 0 0 1 -0.4,0.42 l -0.46,0.36 -0.48,0.32 -0.45,0.3 a 2.72,2.72 0 0 0 -0.35,0.32 0.91,0.91 0 0 0 -0.21,0.35 h 2.71 z" />
    <path
       id="path136"
       fill="#ffffff"
       d="m 131.87359,765.91563 h 0.45 a 1.57,1.57 0 0 0 0.4,-0.14 0.86,0.86 0 0 0 0.29,-0.28 0.83,0.83 0 0 0 0.1,-0.43 0.75,0.75 0 0 0 -0.24,-0.58 1,1 0 0 0 -1,-0.12 0.89,0.89 0 0 0 -0.29,0.26 1.14,1.14 0 0 0 -0.17,0.37 1.51,1.51 0 0 0 0,0.42 h -0.91 a 2.39,2.39 0 0 1 0.15,-0.76 2,2 0 0 1 0.37,-0.6 1.59,1.59 0 0 1 0.58,-0.4 1.81,1.81 0 0 1 0.76,-0.15 2.31,2.31 0 0 1 0.64,0.1 1.89,1.89 0 0 1 0.57,0.28 1.31,1.31 0 0 1 0.4,0.47 1.28,1.28 0 0 1 0.16,0.65 1.36,1.36 0 0 1 -0.2,0.74 1,1 0 0 1 -0.6,0.46 v 0 a 1.13,1.13 0 0 1 0.75,0.48 1.7,1.7 0 0 1 0.11,1.64 1.6,1.6 0 0 1 -0.43,0.53 1.91,1.91 0 0 1 -0.63,0.34 2.43,2.43 0 0 1 -0.77,0.12 2.23,2.23 0 0 1 -0.85,-0.14 1.68,1.68 0 0 1 -0.61,-0.39 1.83,1.83 0 0 1 -0.37,-0.62 2.85,2.85 0 0 1 -0.14,-0.8 h 0.92 a 1.25,1.25 0 0 0 0.25,0.85 1,1 0 0 0 0.8,0.34 1.12,1.12 0 0 0 0.77,-0.26 0.93,0.93 0 0 0 0.31,-0.74 1,1 0 0 0 -0.13,-0.52 0.87,0.87 0 0 0 -0.34,-0.29 1.16,1.16 0 0 0 -0.47,-0.12 3.09,3.09 0 0 0 -0.53,0 z" />
    <path
       id="path138"
       fill="#ffffff"
       d="m 172.17887,767.72524 h -0.72 v 1.38 h -0.87 v -1.33 h -2.4 v -0.9 l 2.4,-3.37 h 0.87 v 3.55 h 0.72 z m -3.3,-0.72 h 1.69 v -2.46 0 z" />
    <path
       id="path140"
       fill="#ffffff"
       d="m 206.69414,763.50524 h 2.9 v 0.81 h -2.21 l -0.29,1.43 v 0 a 1.19,1.19 0 0 1 0.47,-0.32 1.65,1.65 0 0 1 0.57,-0.11 2,2 0 0 1 0.74,0.14 1.45,1.45 0 0 1 0.55,0.39 1.62,1.62 0 0 1 0.34,0.6 2.25,2.25 0 0 1 0.12,0.74 2.49,2.49 0 0 1 -0.11,0.7 2.13,2.13 0 0 1 -0.34,0.65 1.82,1.82 0 0 1 -1.49,0.66 2.57,2.57 0 0 1 -0.75,-0.1 1.84,1.84 0 0 1 -0.62,-0.33 1.7,1.7 0 0 1 -0.42,-0.53 1.87,1.87 0 0 1 -0.17,-0.74 h 0.91 a 1,1 0 0 0 0.32,0.7 1,1 0 0 0 0.72,0.24 1.14,1.14 0 0 0 0.48,-0.09 0.8,0.8 0 0 0 0.33,-0.27 1,1 0 0 0 0.17,-0.39 1.86,1.86 0 0 0 0.06,-0.48 1.31,1.31 0 0 0 -0.07,-0.44 1,1 0 0 0 -0.19,-0.38 0.93,0.93 0 0 0 -0.33,-0.25 1.06,1.06 0 0 0 -0.48,-0.1 1.41,1.41 0 0 0 -0.54,0.11 0.65,0.65 0 0 0 -0.36,0.4 h -0.89 z" />
    <path
       id="path142"
       fill="#ffffff"
       d="m 246.62954,765.03632 a 0.85,0.85 0 0 0 -0.24,-0.55 0.78,0.78 0 0 0 -0.57,-0.22 0.94,0.94 0 0 0 -0.43,0.1 1,1 0 0 0 -0.31,0.24 1.68,1.68 0 0 0 -0.2,0.35 2.77,2.77 0 0 0 -0.12,0.41 c 0,0.15 0,0.29 -0.07,0.43 v 0.4 0 a 1.17,1.17 0 0 1 0.51,-0.5 1.53,1.53 0 0 1 0.7,-0.16 2,2 0 0 1 0.75,0.14 1.69,1.69 0 0 1 0.55,0.4 1.79,1.79 0 0 1 0.35,0.6 2.21,2.21 0 0 1 0.12,0.74 2.13,2.13 0 0 1 -0.13,0.76 2,2 0 0 1 -0.38,0.61 1.87,1.87 0 0 1 -0.59,0.4 1.9,1.9 0 0 1 -0.76,0.14 2.06,2.06 0 0 1 -1,-0.22 1.7,1.7 0 0 1 -0.62,-0.63 2.76,2.76 0 0 1 -0.32,-0.93 6.88,6.88 0 0 1 -0.09,-1.15 5,5 0 0 1 0.11,-1 3,3 0 0 1 0.36,-0.94 1.93,1.93 0 0 1 0.65,-0.68 1.76,1.76 0 0 1 1,-0.27 1.68,1.68 0 0 1 0.63,0.12 1.6,1.6 0 0 1 0.52,0.31 1.5,1.5 0 0 1 0.38,0.48 1.58,1.58 0 0 1 0.16,0.62 z m -0.88,3.54 a 0.89,0.89 0 0 0 0.44,-0.1 0.83,0.83 0 0 0 0.3,-0.26 0.93,0.93 0 0 0 0.19,-0.37 1.61,1.61 0 0 0 0.06,-0.44 1.54,1.54 0 0 0 -0.06,-0.43 0.89,0.89 0 0 0 -0.19,-0.36 0.81,0.81 0 0 0 -0.3,-0.25 0.89,0.89 0 0 0 -0.44,-0.1 1,1 0 0 0 -0.43,0.09 1,1 0 0 0 -0.32,0.25 1.13,1.13 0 0 0 -0.19,0.36 1.62,1.62 0 0 0 -0.07,0.44 1.5,1.5 0 0 0 0.07,0.44 1.23,1.23 0 0 0 0.19,0.38 1,1 0 0 0 0.32,0.26 1,1 0 0 0 0.4,0.09 z" />
    <path
       id="path144"
       fill="#ffffff"
       d="m 281.5748,763.48274 h 3.84 v 0.76 a 8.63,8.63 0 0 0 -0.8,1 7.28,7.28 0 0 0 -0.63,1.13 6.93,6.93 0 0 0 -0.44,1.26 8.62,8.62 0 0 0 -0.22,1.42 h -1 a 6.54,6.54 0 0 1 0.23,-1.31 8.27,8.27 0 0 1 0.46,-1.26 9.7,9.7 0 0 1 0.66,-1.17 10.46,10.46 0 0 1 0.81,-1.05 h -2.91 z" />
    <path
       id="path146"
       fill="#ffffff"
       d="m 321.38081,769.34278 a 2.45,2.45 0 0 1 -0.78,-0.12 1.73,1.73 0 0 1 -0.63,-0.34 1.51,1.51 0 0 1 -0.45,-0.6 1.78,1.78 0 0 1 -0.15,-0.74 1.45,1.45 0 0 1 0.27,-0.89 1.36,1.36 0 0 1 0.75,-0.48 v 0 a 1.28,1.28 0 0 1 -0.59,-0.45 1.26,1.26 0 0 1 -0.2,-0.71 1.43,1.43 0 0 1 0.45,-1.12 2.25,2.25 0 0 1 2.59,0 1.43,1.43 0 0 1 0.45,1.12 1.26,1.26 0 0 1 -0.2,0.71 1.28,1.28 0 0 1 -0.59,0.45 v 0 a 1.36,1.36 0 0 1 0.75,0.48 1.45,1.45 0 0 1 0.27,0.89 1.78,1.78 0 0 1 -0.15,0.74 1.51,1.51 0 0 1 -0.41,0.56 1.73,1.73 0 0 1 -0.63,0.34 2.47,2.47 0 0 1 -0.75,0.16 z m 0,-0.72 a 1.13,1.13 0 0 0 0.77,-0.27 1,1 0 0 0 0.3,-0.77 0.89,0.89 0 0 0 -0.3,-0.72 1.26,1.26 0 0 0 -1.53,0 0.89,0.89 0 0 0 -0.3,0.72 1,1 0 0 0 0.3,0.77 1.12,1.12 0 0 0 0.76,0.27 z m 0,-4.39 a 0.91,0.91 0 0 0 -0.62,0.23 0.88,0.88 0 0 0 0,1.24 1,1 0 0 0 1.27,0 0.88,0.88 0 0 0 0,-1.24 0.92,0.92 0 0 0 -0.65,-0.18 z" />
    <path
       id="path148"
       fill="#ffffff"
       d="m 358.16536,767.77464 a 0.87,0.87 0 0 0 0.24,0.56 0.81,0.81 0 0 0 0.58,0.21 0.83,0.83 0 0 0 0.58,-0.19 1.31,1.31 0 0 0 0.34,-0.49 2.17,2.17 0 0 0 0.17,-0.63 c 0,-0.22 0.05,-0.42 0.07,-0.61 v 0 a 1.33,1.33 0 0 1 -0.5,0.5 1.55,1.55 0 0 1 -0.71,0.17 1.85,1.85 0 0 1 -0.72,-0.14 1.68,1.68 0 0 1 -0.56,-0.38 1.83,1.83 0 0 1 -0.36,-0.59 2.36,2.36 0 0 1 -0.13,-0.78 2.33,2.33 0 0 1 0.13,-0.76 1.84,1.84 0 0 1 0.38,-0.61 1.62,1.62 0 0 1 0.61,-0.4 2.09,2.09 0 0 1 0.81,-0.15 1.92,1.92 0 0 1 1,0.23 1.52,1.52 0 0 1 0.6,0.63 2.75,2.75 0 0 1 0.31,0.93 7,7 0 0 1 0.09,1.15 5,5 0 0 1 -0.11,1 3.14,3.14 0 0 1 -0.35,0.93 2.08,2.08 0 0 1 -0.66,0.69 1.74,1.74 0 0 1 -1,0.26 1.69,1.69 0 0 1 -0.64,-0.11 1.71,1.71 0 0 1 -0.52,-0.31 1.55,1.55 0 0 1 -0.53,-1.11 z m 0.87,-3.54 a 1,1 0 0 0 -0.43,0.1 0.81,0.81 0 0 0 -0.3,0.25 1.16,1.16 0 0 0 -0.18,0.37 1.54,1.54 0 0 0 -0.06,0.43 1.56,1.56 0 0 0 0.06,0.44 1.11,1.11 0 0 0 0.18,0.38 1.08,1.08 0 0 0 0.3,0.26 1,1 0 0 0 0.43,0.1 0.93,0.93 0 0 0 0.45,-0.1 0.9,0.9 0 0 0 0.32,-0.26 1.35,1.35 0 0 0 0.19,-0.38 1.56,1.56 0 0 0 0.06,-0.44 1.54,1.54 0 0 0 -0.06,-0.43 1.43,1.43 0 0 0 -0.19,-0.37 1,1 0 0 0 -0.32,-0.25 1.06,1.06 0 0 0 -0.45,-0.09 z" />
    <path
       id="path150"
       fill="#ffffff"
       d="m 394.99062,764.5343 a 3.43,3.43 0 0 0 0.56,0 2.17,2.17 0 0 0 0.49,-0.16 1.24,1.24 0 0 0 0.38,-0.29 0.92,0.92 0 0 0 0.21,-0.43 h 0.71 v 5.6 h -1 v -4 h -1.38 z" />
    <path
       id="path152"
       fill="#ffffff"
       d="m 401.25062,763.4843 a 1.67,1.67 0 0 1 1,0.28 1.86,1.86 0 0 1 0.59,0.71 3.13,3.13 0 0 1 0.29,0.94 7,7 0 0 1 0,2 3.13,3.13 0 0 1 -0.29,0.94 1.94,1.94 0 0 1 -0.59,0.71 1.67,1.67 0 0 1 -1,0.27 1.7,1.7 0 0 1 -1,-0.27 1.94,1.94 0 0 1 -0.59,-0.71 3.13,3.13 0 0 1 -0.29,-0.94 7,7 0 0 1 0,-2 3.13,3.13 0 0 1 0.29,-0.94 1.86,1.86 0 0 1 0.59,-0.71 1.7,1.7 0 0 1 1,-0.28 z m 0,5.07 a 0.7,0.7 0 0 0 0.49,-0.17 1.12,1.12 0 0 0 0.32,-0.46 2.69,2.69 0 0 0 0.16,-0.69 6.91,6.91 0 0 0 0,-1.66 2.52,2.52 0 0 0 -0.16,-0.68 1.09,1.09 0 0 0 -0.32,-0.47 0.71,0.71 0 0 0 -0.49,-0.18 0.74,0.74 0 0 0 -0.51,0.18 1.17,1.17 0 0 0 -0.31,0.47 3,3 0 0 0 -0.16,0.68 6.91,6.91 0 0 0 0,1.66 3.19,3.19 0 0 0 0.16,0.69 1.2,1.2 0 0 0 0.31,0.46 0.73,0.73 0 0 0 0.51,0.17 z" />
    <path
       id="path154"
       fill="#ffffff"
       d="m 432.75589,764.36274 a 3.43,3.43 0 0 0 0.56,0 2.35,2.35 0 0 0 0.49,-0.16 1.37,1.37 0 0 0 0.38,-0.29 0.9,0.9 0 0 0 0.2,-0.43 h 0.75 v 5.6 h -1 v -4 h -1.38 z" />
    <path
       id="path156"
       fill="#ffffff"
       d="m 437.20589,764.36274 a 3.43,3.43 0 0 0 0.56,0 2.17,2.17 0 0 0 0.49,-0.16 1.24,1.24 0 0 0 0.38,-0.29 0.9,0.9 0 0 0 0.2,-0.43 h 0.75 v 5.6 h -1 v -4 h -1.38 z" />
    <path
       id="path158"
       fill="#ffffff"
       d="m 470.55117,764.53429 a 3.33,3.33 0 0 0 0.56,0 2.26,2.26 0 0 0 0.5,-0.16 1.32,1.32 0 0 0 0.37,-0.29 0.83,0.83 0 0 0 0.21,-0.43 h 0.74 v 5.6 h -1 v -4 h -1.38 z" />
    <path
       id="path160"
       fill="#ffffff"
       d="m 478.72117,769.25429 h -3.83 a 2.35,2.35 0 0 1 0.34,-1.22 3.21,3.21 0 0 1 0.9,-0.9 l 0.57,-0.39 a 4.44,4.44 0 0 0 0.54,-0.4 2.23,2.23 0 0 0 0.41,-0.47 1.13,1.13 0 0 0 0.17,-0.58 1.35,1.35 0 0 0 0,-0.33 0.83,0.83 0 0 0 -0.14,-0.32 0.7,0.7 0 0 0 -0.29,-0.24 1,1 0 0 0 -0.48,-0.11 0.88,0.88 0 0 0 -0.45,0.11 0.83,0.83 0 0 0 -0.29,0.3 1.75,1.75 0 0 0 -0.16,0.44 4.8,4.8 0 0 0 -0.06,0.56 h -0.91 a 2.93,2.93 0 0 1 0.12,-0.86 1.92,1.92 0 0 1 0.38,-0.69 1.69,1.69 0 0 1 0.6,-0.45 2,2 0 0 1 0.83,-0.17 2,2 0 0 1 0.86,0.17 1.7,1.7 0 0 1 0.55,0.43 1.56,1.56 0 0 1 0.3,0.55 2.05,2.05 0 0 1 0.09,0.58 1.74,1.74 0 0 1 -0.1,0.61 2.46,2.46 0 0 1 -0.28,0.5 4,4 0 0 1 -0.4,0.42 l -0.47,0.36 -0.48,0.32 c -0.16,0.1 -0.31,0.2 -0.44,0.3 a 2.27,2.27 0 0 0 -0.36,0.32 0.91,0.91 0 0 0 -0.21,0.35 h 2.73 z" />
    <path
       id="path162"
       fill="#ffffff"
       d="m 508.34644,764.53429 a 3.43,3.43 0 0 0 0.56,0 2.17,2.17 0 0 0 0.49,-0.16 1.24,1.24 0 0 0 0.38,-0.29 0.9,0.9 0 0 0 0.2,-0.43 h 0.75 v 5.6 h -1 v -4 h -1.38 z" />
    <path
       id="path164"
       fill="#ffffff"
       d="m 514.19644,765.92429 h 0.45 a 1.45,1.45 0 0 0 0.4,-0.14 0.78,0.78 0 0 0 0.29,-0.28 0.83,0.83 0 0 0 0.11,-0.43 0.76,0.76 0 0 0 -0.25,-0.58 0.93,0.93 0 0 0 -0.63,-0.22 0.86,0.86 0 0 0 -0.41,0.1 0.83,0.83 0 0 0 -0.3,0.26 1.4,1.4 0 0 0 -0.17,0.37 1.51,1.51 0 0 0 0,0.42 h -0.91 a 2.39,2.39 0 0 1 0.15,-0.76 1.86,1.86 0 0 1 0.38,-0.6 1.47,1.47 0 0 1 0.57,-0.4 1.84,1.84 0 0 1 0.76,-0.15 2.31,2.31 0 0 1 0.64,0.1 1.89,1.89 0 0 1 0.57,0.28 1.44,1.44 0 0 1 0.41,0.47 1.38,1.38 0 0 1 0.15,0.65 1.45,1.45 0 0 1 -0.19,0.74 1.09,1.09 0 0 1 -0.6,0.46 v 0 a 1.09,1.09 0 0 1 0.74,0.48 1.7,1.7 0 0 1 0.11,1.64 1.48,1.48 0 0 1 -0.43,0.53 1.91,1.91 0 0 1 -0.63,0.34 2.42,2.42 0 0 1 -0.76,0.12 2.28,2.28 0 0 1 -0.86,-0.14 1.56,1.56 0 0 1 -0.6,-0.39 1.7,1.7 0 0 1 -0.38,-0.62 2.53,2.53 0 0 1 -0.13,-0.8 h 0.91 a 1.25,1.25 0 0 0 0.25,0.85 1,1 0 0 0 0.81,0.34 1.1,1.1 0 0 0 0.76,-0.26 1.06,1.06 0 0 0 0.18,-1.26 0.84,0.84 0 0 0 -0.33,-0.29 1.21,1.21 0 0 0 -0.47,-0.12 3.21,3.21 0 0 0 -0.54,0 z" />
    <path
       id="path166"
       fill="#ffffff"
       d="m 546.14171,764.53429 a 3.43,3.43 0 0 0 0.56,0 2.44,2.44 0 0 0 0.5,-0.16 1.32,1.32 0 0 0 0.37,-0.29 0.92,0.92 0 0 0 0.21,-0.43 h 0.74 v 5.6 h -1 v -4 h -1.38 z" />
    <path
       id="path168"
       fill="#ffffff"
       d="m 554.35171,767.87429 h -0.72 v 1.38 h -0.87 v -1.33 h -2.4 v -0.9 l 2.4,-3.37 h 0.87 v 3.55 h 0.72 z m -3.28,-0.72 h 1.69 v -2.46 0 z" />
    <path
       id="path170"
       fill="#ffffff"
       d="m 583.93699,764.53429 a 3.33,3.33 0 0 0 0.56,0 2.26,2.26 0 0 0 0.5,-0.16 1.32,1.32 0 0 0 0.37,-0.29 0.83,0.83 0 0 0 0.21,-0.43 h 0.74 v 5.6 h -1 v -4 h -1.38 z" />
    <path
       id="path172"
       fill="#ffffff"
       d="m 588.95699,763.60429 h 2.9 v 0.81 h -2.22 l -0.29,1.43 v 0 a 1.19,1.19 0 0 1 0.47,-0.32 1.65,1.65 0 0 1 0.57,-0.11 1.91,1.91 0 0 1 0.74,0.14 1.38,1.38 0 0 1 0.55,0.39 1.79,1.79 0 0 1 0.35,0.6 2.55,2.55 0 0 1 0.11,0.74 2.17,2.17 0 0 1 -0.11,0.7 1.93,1.93 0 0 1 -0.34,0.65 2,2 0 0 1 -0.61,0.48 1.94,1.94 0 0 1 -0.88,0.18 2.57,2.57 0 0 1 -0.75,-0.1 1.84,1.84 0 0 1 -0.62,-0.33 1.7,1.7 0 0 1 -0.42,-0.53 1.87,1.87 0 0 1 -0.17,-0.74 h 0.91 a 1,1 0 0 0 1,0.94 1.22,1.22 0 0 0 0.49,-0.09 0.84,0.84 0 0 0 0.32,-0.27 1.17,1.17 0 0 0 0.18,-0.39 2.44,2.44 0 0 0 0.05,-0.48 1.31,1.31 0 0 0 -0.07,-0.44 1,1 0 0 0 -0.19,-0.38 0.85,0.85 0 0 0 -0.33,-0.25 1,1 0 0 0 -0.48,-0.1 1.41,1.41 0 0 0 -0.54,0.11 0.65,0.65 0 0 0 -0.36,0.4 h -0.91 z" />
    <path
       id="path174"
       fill="#ffffff"
       d="m 621.73226,764.53429 a 3.43,3.43 0 0 0 0.56,0 2.17,2.17 0 0 0 0.49,-0.16 1.24,1.24 0 0 0 0.38,-0.29 0.9,0.9 0 0 0 0.2,-0.43 h 0.75 v 5.6 h -1 v -4 h -1.38 z" />
    <path
       id="path176"
       fill="#ffffff"
       d="m 628.92226,765.01429 a 0.85,0.85 0 0 0 -0.24,-0.55 0.8,0.8 0 0 0 -0.58,-0.22 1,1 0 0 0 -0.73,0.34 1.33,1.33 0 0 0 -0.2,0.35 2.77,2.77 0 0 0 -0.12,0.41 3.49,3.49 0 0 0 -0.07,0.43 c 0,0.14 0,0.27 0,0.4 v 0 a 1.17,1.17 0 0 1 0.51,-0.5 1.5,1.5 0 0 1 0.7,-0.16 1.91,1.91 0 0 1 0.74,0.14 1.63,1.63 0 0 1 0.56,0.4 1.79,1.79 0 0 1 0.35,0.6 2.21,2.21 0 0 1 0.12,0.74 2.38,2.38 0 0 1 -0.13,0.76 2,2 0 0 1 -0.38,0.61 1.91,1.91 0 0 1 -0.6,0.4 1.87,1.87 0 0 1 -0.76,0.14 2,2 0 0 1 -1,-0.22 1.81,1.81 0 0 1 -0.63,-0.63 2.75,2.75 0 0 1 -0.31,-0.93 6.88,6.88 0 0 1 -0.09,-1.15 5,5 0 0 1 0.11,-1 3,3 0 0 1 0.36,-0.94 1.93,1.93 0 0 1 0.65,-0.68 1.74,1.74 0 0 1 1,-0.27 1.79,1.79 0 0 1 1.16,0.43 1.47,1.47 0 0 1 0.37,0.48 1.42,1.42 0 0 1 0.16,0.62 z m -0.92,3.54 a 0.83,0.83 0 0 0 0.43,-0.1 0.79,0.79 0 0 0 0.31,-0.26 1.29,1.29 0 0 0 0.19,-0.37 1.61,1.61 0 0 0 0.06,-0.44 1.54,1.54 0 0 0 -0.06,-0.43 1.23,1.23 0 0 0 -0.19,-0.36 0.76,0.76 0 0 0 -0.31,-0.25 0.83,0.83 0 0 0 -0.43,-0.1 1,1 0 0 0 -0.44,0.09 1,1 0 0 0 -0.5,0.61 1.31,1.31 0 0 0 -0.07,0.44 1.23,1.23 0 0 0 0.07,0.44 1,1 0 0 0 0.19,0.38 1,1 0 0 0 0.31,0.26 1,1 0 0 0 0.44,0.09 z" />
    <path
       id="path178"
       fill="#ffffff"
       d="m 659.52754,764.53429 a 3.43,3.43 0 0 0 0.56,0 2.35,2.35 0 0 0 0.49,-0.16 1.37,1.37 0 0 0 0.38,-0.29 0.9,0.9 0 0 0 0.2,-0.43 h 0.75 v 5.6 h -1 v -4 h -1.37 z" />
    <path
       id="path180"
       fill="#ffffff"
       d="m 663.82754,763.60429 h 3.84 v 0.76 a 9.8,9.8 0 0 0 -0.8,1 7.28,7.28 0 0 0 -0.63,1.13 7.78,7.78 0 0 0 -0.44,1.26 8.62,8.62 0 0 0 -0.22,1.42 h -1 a 6.54,6.54 0 0 1 0.23,-1.31 8.27,8.27 0 0 1 0.46,-1.26 9.7,9.7 0 0 1 0.66,-1.17 10.46,10.46 0 0 1 0.81,-1.05 h -2.91 z" />
    <path
       id="path182"
       fill="#ffffff"
       d="m 697.32281,764.53429 a 3.33,3.33 0 0 0 0.56,0 2.26,2.26 0 0 0 0.5,-0.16 1.32,1.32 0 0 0 0.37,-0.29 0.92,0.92 0 0 0 0.21,-0.43 h 0.74 v 5.6 h -1 v -4 h -1.38 z" />
    <path
       id="path184"
       fill="#ffffff"
       d="m 703.58281,769.31429 a 2.47,2.47 0 0 1 -0.79,-0.12 1.91,1.91 0 0 1 -0.63,-0.34 1.62,1.62 0 0 1 -0.41,-0.56 1.78,1.78 0 0 1 -0.15,-0.74 1.39,1.39 0 0 1 0.28,-0.89 1.3,1.3 0 0 1 0.74,-0.48 v 0 a 1.2,1.2 0 0 1 -0.58,-0.45 1.19,1.19 0 0 1 -0.21,-0.71 1.43,1.43 0 0 1 0.45,-1.12 1.91,1.91 0 0 1 1.3,-0.41 1.87,1.87 0 0 1 1.29,0.41 1.43,1.43 0 0 1 0.45,1.12 1.26,1.26 0 0 1 -0.2,0.71 1.23,1.23 0 0 1 -0.59,0.45 v 0 a 1.36,1.36 0 0 1 0.75,0.48 1.45,1.45 0 0 1 0.28,0.89 1.78,1.78 0 0 1 -0.15,0.74 1.65,1.65 0 0 1 -0.42,0.56 1.77,1.77 0 0 1 -0.62,0.34 2.56,2.56 0 0 1 -0.79,0.12 z m 0,-0.72 a 1.12,1.12 0 0 0 0.76,-0.27 1,1 0 0 0 0.3,-0.77 0.89,0.89 0 0 0 -0.3,-0.72 1.12,1.12 0 0 0 -0.76,-0.26 1.08,1.08 0 0 0 -0.76,0.26 0.87,0.87 0 0 0 -0.31,0.72 1,1 0 0 0 0.31,0.77 1.09,1.09 0 0 0 0.76,0.27 z m 0,-4.39 a 0.92,0.92 0 0 0 -0.63,0.23 0.91,0.91 0 0 0 0,1.24 1,1 0 0 0 1.27,0 0.88,0.88 0 0 0 0,-1.24 0.91,0.91 0 0 0 -0.64,-0.18 z" />
    <path
       id="path186"
       fill="#ffffff"
       d="m 735.11809,764.53429 a 3.55,3.55 0 0 0 0.57,0 2.35,2.35 0 0 0 0.49,-0.16 1.32,1.32 0 0 0 0.37,-0.29 0.83,0.83 0 0 0 0.21,-0.43 h 0.74 v 5.6 h -1 v -4 h -1.38 z" />
    <path
       id="path188"
       fill="#ffffff"
       d="m 740.43809,767.78429 a 0.83,0.83 0 0 0 0.25,0.56 0.77,0.77 0 0 0 0.57,0.21 0.87,0.87 0 0 0 0.59,-0.19 1.44,1.44 0 0 0 0.34,-0.49 2.53,2.53 0 0 0 0.16,-0.63 c 0,-0.22 0,-0.42 0.07,-0.61 v 0 a 1.33,1.33 0 0 1 -0.5,0.5 1.52,1.52 0 0 1 -0.71,0.17 1.89,1.89 0 0 1 -0.72,-0.14 1.68,1.68 0 0 1 -0.56,-0.38 1.83,1.83 0 0 1 -0.36,-0.59 2.37,2.37 0 0 1 -0.12,-0.78 2.33,2.33 0 0 1 0.12,-0.76 1.84,1.84 0 0 1 0.38,-0.61 1.62,1.62 0 0 1 0.61,-0.4 2.09,2.09 0 0 1 0.81,-0.15 1.89,1.89 0 0 1 1,0.23 1.61,1.61 0 0 1 0.61,0.63 2.75,2.75 0 0 1 0.3,0.93 7,7 0 0 1 0.09,1.15 4.4,4.4 0 0 1 -0.11,1 3.14,3.14 0 0 1 -0.35,0.93 2.15,2.15 0 0 1 -0.65,0.69 1.77,1.77 0 0 1 -1,0.26 1.61,1.61 0 0 1 -0.63,-0.11 1.65,1.65 0 0 1 -0.53,-0.31 1.62,1.62 0 0 1 -0.37,-0.48 1.47,1.47 0 0 1 -0.16,-0.63 z m 0.87,-3.54 a 1,1 0 0 0 -0.43,0.1 0.81,0.81 0 0 0 -0.3,0.25 1.16,1.16 0 0 0 -0.18,0.37 1.54,1.54 0 0 0 -0.06,0.43 1.56,1.56 0 0 0 0.06,0.44 1.11,1.11 0 0 0 0.18,0.38 1.08,1.08 0 0 0 0.3,0.26 1,1 0 0 0 0.43,0.1 0.88,0.88 0 0 0 0.45,-0.1 0.82,0.82 0 0 0 0.32,-0.26 1.13,1.13 0 0 0 0.19,-0.38 1.56,1.56 0 0 0 0.06,-0.44 1.54,1.54 0 0 0 -0.06,-0.43 1.18,1.18 0 0 0 -0.19,-0.37 0.89,0.89 0 0 0 -0.32,-0.25 1,1 0 0 0 -0.45,-0.09 z" />
    <path
       id="path190"
       fill="#ffffff"
       d="m 776.74353,769.25429 h -3.83 a 2.26,2.26 0 0 1 0.34,-1.22 3,3 0 0 1 0.89,-0.9 l 0.57,-0.39 a 4.56,4.56 0 0 0 0.55,-0.4 2.17,2.17 0 0 0 0.4,-0.47 1,1 0 0 0 0.17,-0.58 2,2 0 0 0 0,-0.33 1.3,1.3 0 0 0 -0.14,-0.32 0.76,0.76 0 0 0 -0.29,-0.24 1,1 0 0 0 -0.48,-0.11 0.92,0.92 0 0 0 -0.46,0.11 0.81,0.81 0 0 0 -0.28,0.3 1.21,1.21 0 0 0 -0.16,0.44 2.53,2.53 0 0 0 -0.06,0.56 h -0.92 a 2.63,2.63 0 0 1 0.13,-0.86 1.77,1.77 0 0 1 0.37,-0.69 1.79,1.79 0 0 1 0.6,-0.45 2.18,2.18 0 0 1 1.69,0 1.64,1.64 0 0 1 0.56,0.43 1.56,1.56 0 0 1 0.3,0.55 2,2 0 0 1 0.08,0.58 1.74,1.74 0 0 1 -0.1,0.61 2.06,2.06 0 0 1 -0.28,0.5 3.16,3.16 0 0 1 -0.4,0.42 l -0.46,0.36 -0.49,0.32 -0.44,0.3 a 2.83,2.83 0 0 0 -0.36,0.32 0.78,0.78 0 0 0 -0.2,0.35 h 2.73 z"
       style="display:none" />
    <path
       id="path192"
       fill="#ffffff"
       d="m 779.27353,763.48429 a 1.7,1.7 0 0 1 1,0.28 1.86,1.86 0 0 1 0.59,0.71 3.13,3.13 0 0 1 0.29,0.94 7,7 0 0 1 0,2 3.13,3.13 0 0 1 -0.29,0.94 1.94,1.94 0 0 1 -0.59,0.71 1.7,1.7 0 0 1 -1,0.27 1.67,1.67 0 0 1 -1,-0.27 1.94,1.94 0 0 1 -0.59,-0.71 3.13,3.13 0 0 1 -0.29,-0.94 7,7 0 0 1 0,-2 3.13,3.13 0 0 1 0.29,-0.94 1.86,1.86 0 0 1 0.59,-0.71 1.67,1.67 0 0 1 1,-0.28 z m 0,5.07 a 0.71,0.71 0 0 0 0.5,-0.17 1.22,1.22 0 0 0 0.32,-0.46 2.69,2.69 0 0 0 0.16,-0.69 6.91,6.91 0 0 0 0,-1.66 2.52,2.52 0 0 0 -0.16,-0.68 1.18,1.18 0 0 0 -0.32,-0.47 0.71,0.71 0 0 0 -0.5,-0.18 0.73,0.73 0 0 0 -0.5,0.18 1.17,1.17 0 0 0 -0.31,0.47 2.52,2.52 0 0 0 -0.16,0.68 6.91,6.91 0 0 0 0,1.66 2.69,2.69 0 0 0 0.16,0.69 1.2,1.2 0 0 0 0.31,0.46 0.72,0.72 0 0 0 0.5,0.17 z"
       style="display:none" />
    <path
       id="path268-5"
       fill="#ffffff"
       d="m 768.61885,769.20457 h -5.0513 a 3.0067283,2.25 0 0 1 0.44098,-1.22 4.1292401,3.09 0 0 1 1.20269,-0.9 l 0.70826,-0.36 a 6.320811,4.73 0 0 0 0.72161,-0.4 2.9800018,2.23 0 0 0 0.54789,-0.47 1.5501355,1.16 0 0 0 0.22718,-0.58 1.7238575,1.29 0 0 0 0,-0.33 1.1091486,0.83 0 0 0 -0.18709,-0.32 1.1358751,0.85 0 0 0 -0.37417,-0.25 1.5367722,1.15 0 0 0 -0.6548,-0.1 1.1759648,0.88 0 0 0 -0.60134,0.11 1.1225119,0.84 0 0 0 -0.38754,0.3 2.1648443,1.62 0 0 0 -0.21381,0.44 6.1871786,4.63 0 0 0 -0.0802,0.55 h -1.2695 a 3.5679842,2.67 0 0 1 0.17372,-0.86 2.4053826,1.8 0 0 1 0.49444,-0.68 2.258387,1.69 0 0 1 0.80179,-0.45 2.6726473,2 0 0 1 1.12251,-0.2 2.6726473,2 0 0 1 1.14924,0.17 1.9911223,1.49 0 0 1 0.73498,0.43 1.7372208,1.3 0 0 1 0.4009,0.55 2.6726473,2 0 0 1 0.12027,0.57 2.2182973,1.66 0 0 1 -0.13364,0.61 2.5256517,1.89 0 0 1 -0.37417,0.5 3.046818,2.28 0 0 1 -0.56125,0.41 7.1092419,5.32 0 0 1 -0.62808,0.36 c -0.21381,0.12 -0.42762,0.22 -0.64143,0.32 l -0.57462,0.32 a 3.0334547,2.27 0 0 0 -0.48108,0.32 1.1759648,0.88 0 0 0 -0.28062,0.34 h 3.64816 z"
       style="display:inline;stroke-width:1.15599" />
    <path
       id="path270-8"
       fill="#ffffff"
       d="m 772.01311,763.48457 a 2.2049341,1.65 0 0 1 1.33633,0.28 2.4588356,1.84 0 0 1 0.80179,0.7 4.289599,3.21 0 0 1 0.37417,0.94 7.8174935,5.85 0 0 1 0.10691,1 7.563592,5.66 0 0 1 -0.10691,1 4.1693299,3.12 0 0 1 -0.37417,0.94 2.4989253,1.87 0 0 1 -0.80179,0.71 2.2049341,1.65 0 0 1 -1.33633,0.27 2.2316605,1.67 0 0 1 -1.33632,-0.27 2.5924679,1.94 0 0 1 -0.78843,-0.71 4.1826931,3.13 0 0 1 -0.38754,-0.94 9.1270907,6.83 0 0 1 -0.1069,-1 9.4478084,7.07 0 0 1 0.1069,-1 4.3029622,3.22 0 0 1 0.38754,-0.94 2.5523782,1.91 0 0 1 0.78843,-0.7 2.2316605,1.67 0 0 1 1.33632,-0.28 z m 0,5.07 a 1.015606,0.76 0 0 0 0.66817,-0.17 1.6837678,1.26 0 0 0 0.42762,-0.47 4.008971,3 0 0 0 0.21381,-0.68 9.7017099,7.26 0 0 0 0,-0.83 9.5146245,7.12 0 0 0 0,-0.83 4.2628725,3.19 0 0 0 -0.21381,-0.69 1.6303149,1.22 0 0 0 -0.42762,-0.46 1.0423325,0.78 0 0 0 -1.33633,0 1.6035884,1.2 0 0 0 -0.41426,0.46 3.5947107,2.69 0 0 0 -0.21381,0.69 7.282964,5.45 0 0 0 0,0.83 7.3898699,5.53 0 0 0 0,0.83 3.3675357,2.52 0 0 0 0.21381,0.68 1.6570414,1.24 0 0 0 0.41426,0.47 1.015606,0.76 0 0 0 0.66816,0.17 z"
       style="display:inline;stroke-width:1.15599" />
  </g>
  <g
     id="g12173"
     style="display:inline"
     transform="translate(19.377953)">
    <path
       id="path210"
       fill="#ffffff"
       d="m 9.4487104,718.99023 a 3.43,3.43 0 0 0 0.5600006,0 1.76,1.76 0 0 0 0.49,-0.16 1.37,1.37 0 0 0 0.38,-0.29 0.9,0.9 0 0 0 0.2,-0.43 h 0.75 v 5.6 h -1 v -3.95 H 9.4487104 Z" />
    <path
       id="path212"
       fill="#ffffff"
       d="M 14.500921,686.0357 H 9.4496166 a 2.9800018,2.23 0 0 1 0.440987,-1.22 4.1559666,3.11 0 0 1 1.2026914,-0.91 c 0.240539,-0.13 0.49444,-0.26 0.761705,-0.38 a 5.1181197,3.83 0 0 0 0.721615,-0.41 2.6726473,2 0 0 0 0.547892,-0.47 1.5100457,1.13 0 0 0 0.227175,-0.58 1.6303149,1.22 0 0 0 0,-0.32 1.0289692,0.77 0 0 0 -0.187085,-0.32 1.1358751,0.85 0 0 0 -0.374171,-0.25 1.3363237,1 0 0 0 -0.654798,-0.1 1.1759648,0.88 0 0 0 -0.601346,0.11 1.1893281,0.89 0 0 0 -0.387534,0.29 2.4454723,1.83 0 0 0 -0.213812,0.45 5.8931874,4.41 0 0 0 -0.08018,0.55 H 9.5297956 a 3.5145313,2.63 0 0 1 0.173722,-0.86 2.4053826,1.8 0 0 1 0.4944394,-0.68 2.1514811,1.61 0 0 1 0.801795,-0.46 2.6726473,2 0 0 1 1.122512,-0.16 2.6726473,2 0 0 1 1.149238,0.17 2.1113914,1.58 0 0 1 0.734978,0.42 1.7773105,1.33 0 0 1 0.400897,0.56 2.6726473,2 0 0 1 0.120269,0.57 2.2717502,1.7 0 0 1 -0.133632,0.61 2.5256517,1.89 0 0 1 -0.374171,0.5 4.2227828,3.16 0 0 1 -0.534529,0.42 7.1092419,5.32 0 0 1 -0.628072,0.36 l -0.641436,0.32 c -0.213812,0.1 -0.41426,0.2 -0.587982,0.3 a 3.8887019,2.91 0 0 0 -0.481077,0.32 1.3363237,1 0 0 0 -0.280628,0.35 h 3.634801 z"
       style="stroke-width:1.15599" />
    <path
       id="path214"
       fill="#ffffff"
       d="m 11.56021,644.90986 a 3.046818,2.28 0 0 0 0.601346,0 1.4165031,1.06 0 0 0 0.534529,-0.14 0.88197362,0.66 0 0 0 0.374171,-0.27 1.1358751,0.85 0 0 0 -0.173722,-1 1.2160545,0.91 0 0 0 -0.841884,-0.22 1.0957854,0.82 0 0 0 -0.561256,0.1 1.0690589,0.8 0 0 0 -0.387534,0.26 1.523409,1.14 0 0 0 -0.227175,0.37 1.5501355,1.16 0 0 0 0,0.42 H 9.5958138 a 3.1136342,2.33 0 0 1 0.200449,-0.76 2.4588356,1.84 0 0 1 0.4944392,-0.6 2.1915708,1.64 0 0 1 0.761705,-0.4 2.4989253,1.87 0 0 1 1.015606,-0.15 2.7394635,2.05 0 0 1 0.86861,0.1 2.5256517,1.89 0 0 1 0.761705,0.28 1.750584,1.31 0 0 1 0.534529,0.47 1.8174002,1.36 0 0 1 0.200449,0.65 1.8441267,1.38 0 0 1 -0.253902,0.74 1.523409,1.14 0 0 1 -0.801794,0.46 v 0 a 1.5367722,1.15 0 0 1 1.002243,0.47 2.0980282,1.57 0 0 1 0.360807,0.93 2.0178487,1.51 0 0 1 -0.213811,0.71 2.1782076,1.63 0 0 1 -0.57462,0.54 2.76619,2.07 0 0 1 -0.855247,0.34 3.1670871,2.37 0 0 1 -1.015606,0.12 2.9800018,2.23 0 0 1 -1.135875,-0.14 2.0178487,1.51 0 0 1 -0.815157,-0.4 2.0846649,1.56 0 0 1 -0.4944402,-0.61 3.3808989,2.53 0 0 1 -0.187085,-0.8 h 1.2294172 a 1.6837678,1.26 0 0 0 0.334081,0.85 1.3363237,1 0 0 0 1.069059,0.34 1.5768619,1.18 0 0 0 1.028969,-0.26 1.242781,0.93 0 0 0 0.414261,-0.74 1.3363237,1 0 0 0 -0.173722,-0.52 1.0556957,0.79 0 0 0 -0.45435,-0.29 1.8174002,1.36 0 0 0 -0.628072,-0.13 6.2005418,4.64 0 0 0 -0.708252,0 z"
       style="stroke-width:1.15599" />
    <path
       id="path216"
       fill="#ffffff"
       d="m 14.767388,609.0144 h -0.962153 v 1.31 h -1.149239 v -1.33 H 9.4488188 v -0.9 l 3.2071772,-3.37 h 1.149239 v 3.6 h 0.962153 z m -4.383142,-0.69 h 2.27175 v -2.46 0 z"
       style="stroke-width:1.15599" />
    <path
       id="path218"
       fill="#ffffff"
       d="m 10.451062,566.92913 h 3.875339 v 0.82 h -2.966639 l -0.41426,1.42 v 0 a 1.6436781,1.23 0 0 1 0.628072,-0.32 2.1113914,1.58 0 0 1 0.748341,-0.1 2.3920194,1.79 0 0 1 1.002243,0.14 2.0445752,1.53 0 0 1 0.734978,0.39 2.4321091,1.82 0 0 1 0.45435,0.59 3.0334547,2.27 0 0 1 0.146996,0.75 3.273993,2.45 0 0 1 -0.133633,0.69 2.6726473,2 0 0 1 -0.467713,0.65 2.3652929,1.77 0 0 1 -0.801794,0.48 2.4989253,1.87 0 0 1 -1.175965,0.19 3.4477151,2.58 0 0 1 -1.015606,-0.11 2.3786561,1.78 0 0 1 -0.815157,-0.32 1.9911223,1.49 0 0 1 -0.5612562,-0.54 2.4454723,1.83 0 0 1 -0.240539,-0.74 h 1.2294182 a 1.3363237,1 0 0 0 0.41426,0.7 1.3363237,1 0 0 0 0.962153,0.25 1.3363237,1 0 0 0 0.654799,-0.1 1.0957854,0.82 0 0 0 0.427624,-0.26 1.3363237,1 0 0 0 0.240538,-0.39 3.2606298,2.44 0 0 0 0,-0.48 2.1782076,1.63 0 0 0 -0.08018,-0.45 1.9109429,1.43 0 0 0 -0.253902,-0.37 1.3363237,1 0 0 0 -0.45435,-0.26 1.5100457,1.13 0 0 0 -0.628072,-0.09 1.7773105,1.33 0 0 0 -0.721615,0.1 0.96215304,0.72 0 0 0 -0.494439,0.41 H 9.6091768 Z"
       style="stroke-width:1.15599" />
    <path
       id="path220"
       fill="#ffffff"
       d="m 13.270861,530.65474 a 1.0824222,0.81 0 0 0 -0.334081,-0.55 0.98887952,0.74 0 0 0 -0.761704,-0.22 1.1358751,0.85 0 0 0 -0.574619,0.1 1.1893281,0.89 0 0 0 -0.400897,0.24 1.7773105,1.33 0 0 0 -0.267265,0.35 c 0,0.13 -0.120269,0.27 -0.173722,0.41 a 4.2495093,3.18 0 0 0 -0.08018,0.43 c 0,0.14 0,0.27 0,0.4 v 0 a 1.6035884,1.2 0 0 1 0.668162,-0.5 2.0579385,1.54 0 0 1 0.948789,-0.16 2.3786561,1.78 0 0 1 0.98888,0.14 2.3252032,1.74 0 0 1 0.748341,0.4 2.4321091,1.82 0 0 1 0.45435,0.59 3.0334547,2.27 0 0 1 0.160359,0.75 2.8463694,2.13 0 0 1 -0.173722,0.76 2.2851135,1.71 0 0 1 -0.507803,0.6 2.2049341,1.65 0 0 1 -0.788431,0.41 2.4989253,1.87 0 0 1 -1.015606,0.14 2.5523782,1.91 0 0 1 -1.336324,-0.23 2.1782076,1.63 0 0 1 -0.841883,-0.62 3.4076254,2.55 0 0 1 -0.414261,-0.93 9.1939069,6.88 0 0 1 -0.120269,-1.15 6.0802727,4.55 0 0 1 0.146996,-1 4.1960563,3.14 0 0 1 0.467713,-0.93 2.6726473,2 0 0 1 0.86861,-0.68 2.3786561,1.78 0 0 1 1.336324,-0.27 2.1514811,1.61 0 0 1 0.841884,0.12 1.977759,1.48 0 0 1 0.708251,0.31 2.1648443,1.62 0 0 1 0.49444,0.48 1.8574899,1.39 0 0 1 0.213812,0.62 z m -1.175965,3.54 a 1.1358751,0.85 0 0 0 0.57462,-0.1 1.1492384,0.86 0 0 0 0.41426,-0.26 1.4165031,1.06 0 0 0 0.240538,-0.37 2.1514811,1.61 0 0 0 0.08018,-0.44 2.0579385,1.54 0 0 0 -0.08018,-0.43 1.3363237,1 0 0 0 -0.240538,-0.36 1.3363237,1 0 0 0 -0.41426,-0.26 1.3363237,1 0 0 0 -0.57462,-0.09 1.3363237,1 0 0 0 -0.587982,0.09 1.3363237,1 0 0 0 -0.427624,0.25 1.6436781,1.23 0 0 0 -0.253901,0.36 2.1514811,1.61 0 0 0 -0.08018,0.44 1.7773105,1.33 0 0 0 0.334081,0.82 1.523409,1.14 0 0 0 0.427623,0.26 1.3363237,1 0 0 0 0.587983,0.09 z"
       style="stroke-width:1.15599" />
    <path
       id="path222"
       fill="#ffffff"
       d="m 9.4488188,491.33858 h 5.1314832 v 0.76 a 13.095972,9.8 0 0 0 -1.069059,1 9.7284363,7.28 0 0 0 -0.841884,1.13 10.864311,8.13 0 0 0 -0.587982,1.26 11.746285,8.79 0 0 0 -0.293991,1.47 h -1.336324 a 8.7395568,6.54 0 0 1 0.307354,-1.31 11.051397,8.27 0 0 1 0.614709,-1.26 12.96234,9.7 0 0 1 0.855248,-1.19 12.441173,9.31 0 0 1 1.082422,-1 H 9.4488188 Z"
       style="stroke-width:1.15599" />
    <path
       id="path224"
       fill="#ffffff"
       d="m 12.09524,459.35682 a 3.3675357,2.52 0 0 1 -1.055695,-0.12 2.5791047,1.93 0 0 1 -0.841884,-0.35 2.2182973,1.66 0 0 1 -0.5478928,-0.56 2.2717502,1.7 0 0 1 -0.200448,-0.73 1.9376693,1.45 0 0 1 0.37417,-0.89 1.7372208,1.3 0 0 1 1.0022428,-0.48 v 0 a 1.5501355,1.16 0 0 1 -0.788431,-0.44 1.6169516,1.21 0 0 1 -0.2672648,-0.71 1.9376693,1.45 0 0 1 0.6013458,-1.13 2.5523782,1.91 0 0 1 1.723857,-0.4 2.5523782,1.91 0 0 1 1.723858,0.4 1.8975796,1.42 0 0 1 0.614709,1.13 1.6169516,1.21 0 0 1 -0.280628,0.71 1.4966825,1.12 0 0 1 -0.788431,0.44 v 0 a 1.7372208,1.3 0 0 1 1.002243,0.48 1.8574899,1.39 0 0 1 0.37417,0.89 2.2717502,1.7 0 0 1 -0.200448,0.73 2.2182973,1.66 0 0 1 -0.547893,0.56 2.5791047,1.93 0 0 1 -0.841884,0.35 3.3675357,2.52 0 0 1 -1.055696,0.12 z m 0,-0.72 a 1.469956,1.1 0 0 0 1.015606,-0.27 1.3363237,1 0 0 0 0.414261,-0.77 1.2561443,0.94 0 0 0 -0.414261,-0.73 1.5367722,1.15 0 0 0 -1.015606,-0.26 1.5367722,1.15 0 0 0 -1.015606,0.26 1.242781,0.93 0 0 0 -0.400897,0.73 1.3363237,1 0 0 0 0.400897,0.77 1.469956,1.1 0 0 0 1.015606,0.24 z m 0,-4.39 a 1.2160545,0.91 0 0 0 -0.82852,0.22 1.0824222,0.81 0 0 0 -0.347444,0.64 1.0022428,0.75 0 0 0 0.334081,0.61 1.2294178,0.92 0 0 0 0.841883,0.21 1.2294178,0.92 0 0 0 0.841884,-0.21 1.0022428,0.75 0 0 0 0.334081,-0.61 1.0690589,0.8 0 0 0 -0.334081,-0.64 1.242781,0.93 0 0 0 -0.841884,-0.22 z"
       style="stroke-width:1.15599" />
    <path
       id="path226"
       fill="#ffffff"
       d="m 10.785806,420.04041 a 1.2561443,0.94 0 0 0 0.334081,0.56 1.0289692,0.77 0 0 0 0.761705,0.21 1.1358751,0.85 0 0 0 0.788431,-0.19 1.750584,1.31 0 0 0 0.45435,-0.49 3.3808989,2.53 0 0 0 0.213811,-0.63 c 0,-0.22 0.08018,-0.42 0.09354,-0.61 v 0 a 1.9243061,1.44 0 0 1 -0.681525,0.5 2.0178487,1.51 0 0 1 -0.935426,0.17 2.539015,1.9 0 0 1 -0.975517,-0.14 2.1915708,1.64 0 0 1 -0.734978,-0.38 2.0579385,1.54 0 0 1 -0.4810758,-0.59 2.8463694,2.13 0 0 1 -0.173722,-0.78 2.7929165,2.09 0 0 1 0.173722,-0.76 2.4321091,1.82 0 0 1 0.4944398,-0.61 2.2717502,1.7 0 0 1 0.815157,-0.4 2.8062797,2.1 0 0 1 1.095785,-0.15 2.5122885,1.88 0 0 1 1.336324,0.23 2.1514811,1.61 0 0 1 0.815158,0.63 4.008971,3 0 0 1 0.41426,0.93 9.3542657,7 0 0 1 0.106906,1.15 6.6816184,5 0 0 1 -0.133633,1 4.2227828,3.16 0 0 1 -0.481076,0.93 2.8730959,2.15 0 0 1 -0.86861,0.69 2.3385664,1.75 0 0 1 -1.336324,0.26 2.2316605,1.67 0 0 1 -0.841884,-0.11 2.3519297,1.76 0 0 1 -0.708252,-0.31 2.0713017,1.55 0 0 1 -0.7884298,-1.11 z m 1.175965,-3.54 a 1.3363237,1 0 0 0 -0.587982,0.1 1.0824222,0.81 0 0 0 -0.400898,0.25 1.5501355,1.16 0 0 0 -0.240538,0.37 2.0579385,1.54 0 0 0 -0.08018,0.43 2.0846649,1.56 0 0 0 0.08018,0.44 1.4833193,1.11 0 0 0 0.240538,0.38 1.4432296,1.08 0 0 0 0.400898,0.26 1.3363237,1 0 0 0 0.587982,0.1 1.242781,0.93 0 0 0 0.601346,-0.1 1.1492384,0.86 0 0 0 0.41426,-0.26 1.5100457,1.13 0 0 0 0.253902,-0.38 2.0846649,1.56 0 0 0 0.08018,-0.44 2.0579385,1.54 0 0 0 -0.08018,-0.43 1.5768619,1.18 0 0 0 -0.253902,-0.37 1.3363237,1 0 0 0 -0.41426,-0.25 1.4165031,1.06 0 0 0 -0.601346,-0.1 z"
       style="stroke-width:1.15599" />
    <path
       id="path228"
       fill="#ffffff"
       d="m 3.7795275,378.9953 a 4.5835902,3.43 0 0 0 0.7483412,0 1.9911223,1.49 0 0 0 0.654799,-0.16 1.6035884,1.2 0 0 0 0.507803,-0.29 1.2026913,0.9 0 0 0 0.267264,-0.43 h 1.002243 v 5.6 h -1.336324 v -3.99 H 3.7795275 Z"
       style="stroke-width:1.15599" />
    <path
       id="path230"
       fill="#ffffff"
       d="m 12.131551,377.9553 a 2.2049341,1.65 0 0 1 1.336323,0.27 2.4989253,1.87 0 0 1 0.801795,0.71 4.5969534,3.44 0 0 1 0.387534,0.94 9.0602745,6.78 0 0 1 0.09354,1 9.3542657,7 0 0 1 -0.09354,1 4.743949,3.55 0 0 1 -0.387534,0.94 2.4588356,1.84 0 0 1 -0.801795,0.7 2.2049341,1.65 0 0 1 -1.336323,0.28 2.2316605,1.67 0 0 1 -1.336324,-0.28 2.5523782,1.91 0 0 1 -0.788431,-0.7 4.3029622,3.22 0 0 1 -0.3875343,-0.94 9.3542657,7 0 0 1 -0.09354,-1 9.0602745,6.78 0 0 1 0.09354,-1 4.1826931,3.13 0 0 1 0.3875343,-0.94 2.5924679,1.94 0 0 1 0.788431,-0.71 2.2316605,1.67 0 0 1 1.336324,-0.27 z m 0,5.07 a 0.94878981,0.71 0 0 0 0.668161,-0.18 1.5367722,1.15 0 0 0 0.427624,-0.46 4.1292401,3.09 0 0 0 0.213812,-0.68 9.9422481,7.44 0 0 0 0,-0.84 9.7017099,7.26 0 0 0 0,-0.83 4.1292401,3.09 0 0 0 -0.213812,-0.68 1.6837678,1.26 0 0 0 -0.427624,-0.47 1.0957854,0.82 0 0 0 -1.336323,0 1.6570414,1.24 0 0 0 -0.414261,0.47 3.4878048,2.61 0 0 0 -0.213811,0.68 7.3898699,5.53 0 0 0 0,0.83 7.563592,5.66 0 0 0 0,0.84 3.4878048,2.61 0 0 0 0.213811,0.68 1.5100457,1.13 0 0 0 0.414261,0.46 0.94878981,0.71 0 0 0 0.668162,0.18 z"
       style="stroke-width:1.15599" />
    <path
       id="path232"
       fill="#ffffff"
       d="m 3.7795275,341.08748 a 3.4610783,2.59 0 0 0 0.748341,-0.05 1.9911223,1.49 0 0 0 0.654799,-0.16 1.7906737,1.34 0 0 0 0.507803,-0.28 1.2561443,0.94 0 0 0 0.267264,-0.44 h 1.002243 v 5.61 h -1.336324 v -4 h -1.844126 z"
       style="stroke-width:1.15599" />
    <path
       id="path234"
       fill="#ffffff"
       d="m 9.7261675,341.08748 a 3.4610783,2.59 0 0 0 0.7483405,-0.05 1.9911223,1.49 0 0 0 0.654799,-0.16 1.6169516,1.21 0 0 0 0.507803,-0.28 1.3363237,1 0 0 0 0.280628,-0.44 h 0.98888 v 5.61 h -1.336324 v -4 H 9.7261675 Z"
       style="stroke-width:1.15599" />
    <path
       id="path236"
       fill="#ffffff"
       d="m 3.7795275,303.45263 a 4.5835902,3.43 0 0 0 0.748341,-0.05 2.3519297,1.76 0 0 0 0.654799,-0.16 1.8307634,1.37 0 0 0 0.507803,-0.29 1.2026913,0.9 0 0 0 0.267264,-0.43 h 1.002243 v 5.6 h -1.336324 v -3.95 h -1.844126 z"
       style="stroke-width:1.15599" />
    <path
       id="path238"
       fill="#ffffff"
       d="M 14.697293,308.12263 H 9.5791715 a 2.9399121,2.2 0 0 1 0.4543505,-1.25 4.008971,3 0 0 1 1.189329,-0.91 l 0.761704,-0.39 a 6.0936359,4.56 0 0 0 0.734978,-0.4 2.8998224,2.17 0 0 0 0.534529,-0.47 1.3363237,1 0 0 0 0.227175,-0.58 2.6726473,2 0 0 0 0,-0.33 1.3363237,1 0 0 0 -0.187085,-0.32 1.1626016,0.87 0 0 0 -0.387534,-0.24 1.3363237,1 0 0 0 -0.641435,-0.1 1.1759648,0.88 0 0 0 -0.601346,0.1 1.1091486,0.83 0 0 0 -0.387534,0.3 1.6169516,1.21 0 0 0 -0.213811,0.44 3.3808989,2.53 0 0 0 -0.08018,0.56 H 9.7128035 a 3.5145313,2.63 0 0 1 0.173722,-0.86 2.3652929,1.77 0 0 1 0.4944405,-0.69 2.5256517,1.89 0 0 1 0.801794,-0.45 2.9131856,2.18 0 0 1 2.258386,0 2.1915708,1.64 0 0 1 0.748343,0.43 2.0846649,1.56 0 0 1 0.400897,0.55 2.7394635,2.05 0 0 1 0.120269,0.58 2.3252032,1.74 0 0 1 -0.146996,0.61 2.7528268,2.06 0 0 1 -0.37417,0.5 4.2227828,3.16 0 0 1 -0.534531,0.42 l -0.614709,0.36 -0.641435,0.32 -0.601345,0.3 a 4.9844873,3.73 0 0 0 -0.481077,0.32 1.0423325,0.78 0 0 0 -0.267265,0.35 h 3.648165 z"
       style="stroke-width:1.15599" />
    <path
       id="path240"
       fill="#ffffff"
       d="m 3.7795275,265.57708 a 4.5835902,3.43 0 0 0 0.748341,0 1.9911223,1.49 0 0 0 0.654799,-0.16 1.6035884,1.2 0 0 0 0.507803,-0.29 1.1492384,0.86 0 0 0 0.267264,-0.43 h 1.002243 v 5.61 h -1.336324 v -4 h -1.844126 z"
       style="stroke-width:1.15599" />
    <path
       id="path242"
       fill="#ffffff"
       d="m 11.597021,266.96708 a 2.2851135,1.71 0 0 0 0.601346,0 1.6837678,1.26 0 0 0 0.534529,-0.14 1.1492384,0.86 0 0 0 0.387534,-0.28 1.0824222,0.81 0 0 0 0.133632,-0.43 0.96215304,0.72 0 0 0 -0.320718,-0.57 1.1759648,0.88 0 0 0 -0.841883,-0.22 1.015606,0.76 0 0 0 -0.547893,0.1 1.2160545,0.91 0 0 0 -0.400897,0.25 2.0846649,1.56 0 0 0 -0.227175,0.37 2.0178487,1.51 0 0 0 0,0.42 H 9.6326245 a 3.0334547,2.27 0 0 1 0.200449,-0.75 2.6726473,2 0 0 1 0.4944405,-0.61 2.2984767,1.72 0 0 1 0.775067,-0.4 2.6726473,2 0 0 1 1.015606,-0.14 3.0735444,2.3 0 0 1 0.855247,0.09 2.8864591,2.16 0 0 1 0.761705,0.28 1.8574899,1.39 0 0 1 0.53453,0.47 1.7238575,1.29 0 0 1 0.213812,0.66 1.8842164,1.41 0 0 1 -0.267265,0.74 1.4165031,1.06 0 0 1 -0.801795,0.46 v 0 a 1.6169516,1.21 0 0 1 1.002244,0.48 2.2717502,1.7 0 0 1 0.146995,1.64 2.3252032,1.74 0 0 1 -0.574619,0.54 2.8330062,2.12 0 0 1 -0.841885,0.34 3.2339033,2.42 0 0 1 -1.015605,0.12 3.3408092,2.5 0 0 1 -1.149239,-0.14 2.4721988,1.85 0 0 1 -0.815157,-0.4 2.4454723,1.83 0 0 1 -0.4944405,-0.62 3.3140827,2.48 0 0 1 -0.173722,-0.8 h 1.2160555 a 1.7104943,1.28 0 0 0 0.33408,0.86 1.3363237,1 0 0 0 1.082423,0.34 1.5634987,1.17 0 0 0 1.015605,-0.26 1.2160545,0.91 0 0 0 0.41426,-0.74 1.1626016,0.87 0 0 0 -0.173722,-0.52 1.1893281,0.89 0 0 0 -0.45435,-0.3 2.0713017,1.55 0 0 0 -0.614708,-0.12 6.5078963,4.87 0 0 0 -0.721615,0 z"
       style="stroke-width:1.15599" />
    <path
       id="path244"
       fill="#ffffff"
       d="m 3.7795275,227.65165 a 3.4610783,2.59 0 0 0 0.748341,0 1.9911223,1.49 0 0 0 0.654799,-0.16 1.7906737,1.34 0 0 0 0.507803,-0.28 1.2561443,0.94 0 0 0 0.267264,-0.44 h 1.002243 v 5.61 h -1.336324 v -4 h -1.844126 z"
       style="stroke-width:1.15599" />
    <path
       id="path246"
       fill="#ffffff"
       d="m 14.750745,231.00165 h -0.962153 v 1.33 H 12.62599 v -1.33 H 9.4188135 v -0.91 l 3.2071765,-3.32 h 1.162602 v 3.56 h 0.962153 z m -4.396505,-0.72 h 2.27175 v -2.51 0 z"
       style="stroke-width:1.15599" />
    <path
       id="path248"
       fill="#ffffff"
       d="m 3.7795275,189.90638 a 4.5835902,3.43 0 0 0 0.748341,0 2.3519297,1.76 0 0 0 0.654799,-0.16 1.8307634,1.37 0 0 0 0.507803,-0.29 1.2026913,0.9 0 0 0 0.267264,-0.43 h 1.002243 v 5.6 h -1.336324 v -4 h -1.844126 z"
       style="stroke-width:1.15599" />
    <path
       id="path250"
       fill="#ffffff"
       d="m 10.474509,188.97638 h 3.875339 v 0.81 h -2.899822 l -0.387534,1.43 v 0 a 1.5100457,1.13 0 0 1 0.628072,-0.32 2.1915708,1.64 0 0 1 0.748341,-0.11 2.6726473,2 0 0 1 1.002242,0.14 2.0980282,1.57 0 0 1 0.681526,0.44 2.3652929,1.77 0 0 1 0.45435,0.6 3.0334547,2.27 0 0 1 0.160359,0.75 3.3140827,2.48 0 0 1 -0.146995,0.69 2.6726473,2 0 0 1 -0.467714,0.65 2.4321091,1.82 0 0 1 -0.801795,0.48 2.6726473,2 0 0 1 -1.175964,0.18 3.5813474,2.68 0 0 1 -1.015606,-0.1 2.5256517,1.89 0 0 1 -0.815158,-0.33 1.9510326,1.46 0 0 1 -0.5612565,-0.53 2.4989253,1.87 0 0 1 -0.227175,-0.74 h 1.2160555 a 1.2561443,0.94 0 0 0 1.336324,0.94 1.5501355,1.16 0 0 0 0.654798,-0.09 1.1626016,0.87 0 0 0 0.440987,-0.27 1.3363237,1 0 0 0 0.227175,-0.39 2.485562,1.86 0 0 0 0.06682,-0.48 2.1514811,1.61 0 0 0 -0.08018,-0.44 1.5100457,1.13 0 0 0 -0.253902,-0.38 1.3363237,1 0 0 0 -0.440987,-0.25 1.4165031,1.06 0 0 0 -0.641435,-0.1 1.8842164,1.41 0 0 0 -0.721614,0.11 0.93542657,0.7 0 0 0 -0.49444,0.4 H 9.6727145 Z"
       style="stroke-width:1.15599" />
    <path
       id="path252"
       fill="#ffffff"
       d="m 3.7795275,152.22212 a 4.5835902,3.43 0 0 0 0.748341,0 1.9911223,1.49 0 0 0 0.654799,-0.16 1.6035884,1.2 0 0 0 0.507803,-0.29 1.1492384,0.86 0 0 0 0.267264,-0.43 h 1.002243 v 5.61 h -1.336324 v -4 h -1.844126 z"
       style="stroke-width:1.15599" />
    <path
       id="path254"
       fill="#ffffff"
       d="m 13.387694,152.71212 a 1.1626016,0.87 0 0 0 -0.320717,-0.56 1.0824222,0.81 0 0 0 -0.775068,-0.21 1.242781,0.93 0 0 0 -0.561256,0.09 1.1225119,0.84 0 0 0 -0.41426,0.25 1.6971311,1.27 0 0 0 -0.267265,0.34 3.8753386,2.9 0 0 0 -0.160358,0.42 2.6726473,2 0 0 0 -0.09354,0.42 c 0,0.15 0,0.28 0,0.4 v 0 a 1.4966825,1.12 0 0 1 0.681525,-0.5 2.0178487,1.51 0 0 1 0.935426,-0.17 2.3385664,1.75 0 0 1 0.988879,0.15 1.9911223,1.49 0 0 1 0.748343,0.39 2.3920194,1.79 0 0 1 0.467713,0.6 3.0067283,2.25 0 0 1 0.160359,0.74 3.046818,2.28 0 0 1 -0.173722,0.76 2.3652929,1.77 0 0 1 -0.521166,0.61 2.1648443,1.62 0 0 1 -0.788433,0.4 2.4989253,1.87 0 0 1 -1.015605,0.15 2.6726473,2 0 0 1 -1.336324,-0.23 2.2717502,1.7 0 0 1 -0.841884,-0.62 3.8887019,2.91 0 0 1 -0.4142605,-0.93 9.3542657,7 0 0 1 -0.120269,-1.15 6.7484345,5.05 0 0 1 0.146995,-1 4.1960563,3.14 0 0 1 0.4008975,-0.93 2.9131856,2.18 0 0 1 0.881974,-0.69 2.4321091,1.82 0 0 1 1.336324,-0.26 2.5523782,1.91 0 0 1 0.855246,0.11 2.5924679,1.94 0 0 1 0.69489,0.31 2.2984767,1.72 0 0 1 0.49444,0.48 1.9643958,1.47 0 0 1 0.213812,0.63 z m -1.175964,3.54 a 1.2561443,0.94 0 0 0 0.574619,-0.1 1.5100457,1.13 0 0 0 0.41426,-0.26 1.5501355,1.16 0 0 0 0.240538,-0.37 2.2316605,1.67 0 0 0 0.08018,-0.44 2.0579385,1.54 0 0 0 -0.08018,-0.43 1.5501355,1.16 0 0 0 -0.240538,-0.37 1.2561443,0.94 0 0 0 -0.988879,-0.35 1.1893281,0.89 0 0 0 -0.587982,0.1 1.2294178,0.92 0 0 0 -0.414261,0.24 1.6035884,1.2 0 0 0 -0.267264,0.37 2.0846649,1.56 0 0 0 -0.08018,0.44 2.1514811,1.61 0 0 0 0.08018,0.44 1.6035884,1.2 0 0 0 0.267264,0.37 1.1492384,0.86 0 0 0 0.414261,0.26 1.1893281,0.89 0 0 0 0.587982,0.1 z"
       style="stroke-width:1.15599" />
    <path
       id="path256"
       fill="#ffffff"
       d="m 3.7795275,114.31583 a 4.5835902,3.43 0 0 0 0.748341,0 2.3652929,1.77 0 0 0 0.654799,-0.17 1.7906737,1.34 0 0 0 0.507803,-0.28 1.1893281,0.89 0 0 0 0.267264,-0.44 h 1.002243 v 5.61 h -1.336324 v -4 h -1.844126 z"
       style="stroke-width:1.15599" />
    <path
       id="path258"
       fill="#ffffff"
       d="m 9.5390825,113.38583 h 5.1181205 v 0.76 a 16.610503,12.43 0 0 0 -1.06906,1 11.144939,8.34 0 0 0 -0.801794,1.16 11.345388,8.49 0 0 0 -0.574619,1.26 11.893281,8.9 0 0 0 -0.307354,1.43 h -1.336324 a 8.7395568,6.54 0 0 1 0.307354,-1.31 10.142697,7.59 0 0 1 0.57462,-1.21 9.0201848,6.75 0 0 1 0.881973,-1.17 16.14279,12.08 0 0 1 1.069059,-1 H 9.5390825 Z"
       style="stroke-width:1.15599" />
    <path
       id="path260"
       fill="#ffffff"
       d="m 3.7795275,76.63522 a 4.5835902,3.43 0 0 0 0.748341,0 2.3519297,1.76 0 0 0 0.654799,-0.16 1.8307634,1.37 0 0 0 0.507803,-0.34 1.2026913,0.9 0 0 0 0.267264,-0.43 h 1.002243 v 5.6 h -1.336324 v -4 h -1.844126 z"
       style="stroke-width:1.15599" />
    <path
       id="path262"
       fill="#ffffff"
       d="m 12.131551,81.42522 a 3.4209886,2.56 0 0 1 -1.055696,-0.12 2.3920194,1.79 0 0 1 -0.828521,-0.35 2.2049341,1.65 0 0 1 -0.5612565,-0.56 2.3385664,1.75 0 0 1 -0.187085,-0.74 1.8975796,1.42 0 0 1 0.360807,-0.88 1.8441267,1.38 0 0 1 1.0022435,-0.49 v 0 a 1.6436781,1.23 0 0 1 -0.748341,-0.46 1.6704046,1.25 0 0 1 -0.2672655,-0.7 1.9376693,1.45 0 0 1 0.6013465,-1.13 2.485562,1.86 0 0 1 1.723857,-0.4 2.5256517,1.89 0 0 1 1.737221,0.4 1.9376693,1.45 0 0 1 0.561257,1.14 1.5768619,1.18 0 0 1 -0.280628,0.7 1.6035884,1.2 0 0 1 -0.775069,0.45 v 0 a 1.8441267,1.38 0 0 1 1.002244,0.49 1.8975796,1.42 0 0 1 0.360807,0.88 2.3385664,1.75 0 0 1 -0.200449,0.74 2.1648443,1.62 0 0 1 -0.547892,0.56 2.4588356,1.84 0 0 1 -0.841885,0.35 3.3007195,2.47 0 0 1 -1.055695,0.12 z m 0,-0.72 a 1.4565928,1.09 0 0 0 1.015605,-0.28 1.3363237,1 0 0 0 0.41426,-0.77 1.1626016,0.87 0 0 0 -0.41426,-0.72 1.5100457,1.13 0 0 0 -1.015605,-0.26 1.5634987,1.17 0 0 0 -1.015606,0.26 1.1893281,0.89 0 0 0 -0.400897,0.72 1.3363237,1 0 0 0 0.400897,0.77 1.5100457,1.13 0 0 0 1.015606,0.28 z m 0,-4.39 a 1.2160545,0.91 0 0 0 -0.828521,0.22 1.0556957,0.79 0 0 0 -0.347444,0.63 1.0690589,0.8 0 0 0 0.334081,0.62 1.4298663,1.07 0 0 0 1.69713,0 1.0690589,0.8 0 0 0 0.320718,-0.65 1.0423325,0.78 0 0 0 -0.334081,-0.63 1.2160545,0.91 0 0 0 -0.841883,-0.19 z"
       style="stroke-width:1.15599" />
    <path
       id="path264"
       fill="#ffffff"
       d="m 3.4015747,38.856388 a 4.5835902,3.43 0 0 0 0.748341,0 1.9911223,1.49 0 0 0 0.654799,-0.16 1.6035884,1.2 0 0 0 0.507803,-0.29 1.1492384,0.86 0 0 0 0.267264,-0.43 h 1.002243 v 5.61 h -1.336324 v -4 h -1.844126 z"
       style="stroke-width:1.15599" />
    <path
       id="path266"
       fill="#ffffff"
       d="m 10.510817,42.116388 a 1.2026913,0.9 0 0 0 0.320717,0.56 1.0289692,0.77 0 0 0 0.761705,0.21 1.1225119,0.84 0 0 0 0.815157,-0.18 1.6436781,1.23 0 0 0 0.45435,-0.49 3.2873562,2.46 0 0 0 0.227175,-0.62 c 0,-0.22 0,-0.43 0.08018,-0.61 v 0 a 1.5634987,1.17 0 0 1 -0.681525,0.5 1.8307634,1.37 0 0 1 -0.935426,0.17 2.539015,1.9 0 0 1 -0.975517,-0.13 2.1915708,1.64 0 0 1 -0.7349778,-0.38 2.1113914,1.58 0 0 1 -0.4810765,-0.6 2.8463694,2.13 0 0 1 -0.213812,-0.84 2.6726473,2 0 0 1 0.173722,-0.75 2.1915708,1.64 0 0 1 0.4944405,-0.61 2.31184,1.73 0 0 1 0.8151568,-0.41 3.1403606,2.35 0 0 1 1.095786,-0.14 2.6726473,2 0 0 1 1.336323,0.23 2.2717502,1.7 0 0 1 0.801795,0.62 3.8619754,2.89 0 0 1 0.414261,0.94 9.033548,6.76 0 0 1 0.09354,1.12 6.7484345,5.05 0 0 1 -0.146995,1 3.8887019,2.91 0 0 1 -0.481077,1 2.5791047,1.93 0 0 1 -0.868611,0.68 2.3519297,1.76 0 0 1 -1.336324,0.27 2.539015,1.9 0 0 1 -0.841884,-0.11 2.1648443,1.62 0 0 1 -0.694888,-0.32 2.0044855,1.5 0 0 1 -0.5078033,-0.52 2.0445752,1.53 0 0 1 -0.213812,-0.62 z m 1.162601,-3.54 a 1.2561443,0.94 0 0 0 -0.601345,0.13 1.1492384,0.86 0 0 0 -0.414261,0.25 1.5501355,1.16 0 0 0 -0.240538,0.37 2.1915708,1.64 0 0 0 0,0.88 1.4165031,1.06 0 0 0 0.240538,0.37 1.0556957,0.79 0 0 0 0.414261,0.26 1.1091486,0.83 0 0 0 0.574619,0.1 1.4165031,1.06 0 0 0 0.601345,-0.09 1.1759648,0.88 0 0 0 0.41426,-0.26 1.3363237,1 0 0 0 0.253902,-0.38 1.8975796,1.42 0 0 0 0,-0.88 1.1893281,0.89 0 0 0 -0.253902,-0.36 1.015606,0.76 0 0 0 -0.387533,-0.26 1.242781,0.93 0 0 0 -0.601346,-0.13 z"
       style="stroke-width:1.15599" />
    <path
       id="path268"
       fill="#ffffff"
       d="m 9.8197105,7.477736 h -5.051304 a 3.0067283,2.25 0 0 1 0.440987,-1.2199996 4.1292401,3.09 0 0 1 1.202691,-0.9 l 0.708252,-0.36 a 6.320811,4.73 0 0 0 0.721615,-0.4 2.9800018,2.23 0 0 0 0.547892,-0.47 1.5501355,1.16 0 0 0 0.227175,-0.58 1.7238575,1.29 0 0 0 0,-0.33 1.1091486,0.83 0 0 0 -0.187085,-0.3199998 1.1358751,0.85 0 0 0 -0.374171,-0.25 1.5367722,1.15 0 0 0 -0.654798,-0.1 1.1759648,0.88 0 0 0 -0.601346,0.11 1.1225119,0.84 0 0 0 -0.387534,0.3 2.1648443,1.62 0 0 0 -0.213812,0.4399998 6.1871786,4.63 0 0 0 -0.08018,0.55 h -1.269507 a 3.5679842,2.67 0 0 1 0.173722,-0.8599998 2.4053826,1.8 0 0 1 0.494439,-0.68 2.258387,1.69 0 0 1 0.801795,-0.45 2.6726473,2 0 0 1 1.122512,-0.2 2.6726473,2 0 0 1 1.149238,0.17 1.9911223,1.49 0 0 1 0.734978,0.43 1.7372208,1.3 0 0 1 0.400897,0.55 2.6726473,2 0 0 1 0.120269,0.5699998 2.2182973,1.66 0 0 1 -0.133632,0.61 2.5256517,1.89 0 0 1 -0.374171,0.5 3.046818,2.28 0 0 1 -0.561256,0.41 7.1092419,5.32 0 0 1 -0.628072,0.36 c -0.213812,0.12 -0.427624,0.22 -0.641435,0.32 l -0.574619,0.32 a 3.0334547,2.27 0 0 0 -0.481077,0.32 1.1759648,0.88 0 0 0 -0.280628,0.34 h 3.648164 z"
       style="stroke-width:1.15599" />
    <path
       id="path270"
       fill="#ffffff"
       d="m 13.213972,1.7577366 a 2.2049341,1.65 0 0 1 1.336325,0.28 2.4588356,1.84 0 0 1 0.801794,0.7 4.289599,3.21 0 0 1 0.374171,0.9399998 7.8174935,5.85 0 0 1 0.106906,1 7.563592,5.66 0 0 1 -0.106906,1 4.1693299,3.12 0 0 1 -0.374171,0.94 2.4989253,1.87 0 0 1 -0.801794,0.7099996 2.2049341,1.65 0 0 1 -1.336325,0.27 2.2316605,1.67 0 0 1 -1.336323,-0.27 2.5924679,1.94 0 0 1 -0.788431,-0.7099996 4.1826931,3.13 0 0 1 -0.387534,-0.94 9.1270907,6.83 0 0 1 -0.106906,-1 9.4478084,7.07 0 0 1 0.106906,-1 4.3029622,3.22 0 0 1 0.387534,-0.9399998 2.5523782,1.91 0 0 1 0.788431,-0.7 2.2316605,1.67 0 0 1 1.336323,-0.28 z m 0,5.0699998 a 1.015606,0.76 0 0 0 0.668163,-0.17 1.6837678,1.26 0 0 0 0.427624,-0.47 4.008971,3 0 0 0 0.213811,-0.68 9.7017099,7.26 0 0 0 0,-0.83 9.5146245,7.12 0 0 0 0,-0.83 4.2628725,3.19 0 0 0 -0.213811,-0.69 1.6303149,1.22 0 0 0 -0.427624,-0.4599998 1.0423325,0.78 0 0 0 -1.336324,0 1.6035884,1.2 0 0 0 -0.41426,0.4599998 3.5947107,2.69 0 0 0 -0.213812,0.69 7.282964,5.45 0 0 0 0,0.83 7.3898699,5.53 0 0 0 0,0.83 3.3675357,2.52 0 0 0 0.213812,0.68 1.6570414,1.24 0 0 0 0.41426,0.47 1.015606,0.76 0 0 0 0.668161,0.17 z"
       style="stroke-width:1.15599" />
  </g>
  <path
     id="path272"
     fill="#ffffff"
     d="m 28.519055,749.34946 a 1.58,1.58 0 0 1 1,0.28 1.91,1.91 0 0 1 0.59,0.7 3.22,3.22 0 0 1 0.29,0.94 6.83,6.83 0 0 1 0.08,1 7,7 0 0 1 -0.08,1 3.22,3.22 0 0 1 -0.29,0.94 1.91,1.91 0 0 1 -0.59,0.7 1.58,1.58 0 0 1 -1,0.28 1.58,1.58 0 0 1 -1,-0.28 1.91,1.91 0 0 1 -0.59,-0.7 3.22,3.22 0 0 1 -0.29,-0.94 7,7 0 0 1 -0.08,-1 6.83,6.83 0 0 1 0.08,-1 3.22,3.22 0 0 1 0.29,-0.94 1.91,1.91 0 0 1 0.59,-0.7 1.58,1.58 0 0 1 1,-0.28 z m 0,5.07 a 0.78,0.78 0 0 0 0.5,-0.17 1.14,1.14 0 0 0 0.31,-0.47 2.93,2.93 0 0 0 0.17,-0.68 7.39,7.39 0 0 0 0,-0.84 7,7 0 0 0 0,-0.82 3.17,3.17 0 0 0 -0.17,-0.69 1.14,1.14 0 0 0 -0.31,-0.47 0.78,0.78 0 0 0 -0.5,-0.17 0.76,0.76 0 0 0 -0.5,0.17 1.14,1.14 0 0 0 -0.31,0.47 3.17,3.17 0 0 0 -0.17,0.69 7,7 0 0 0 0,0.82 7.39,7.39 0 0 0 0,0.84 2.93,2.93 0 0 0 0.17,0.68 1.14,1.14 0 0 0 0.31,0.47 0.76,0.76 0 0 0 0.5,0.17 z" />
  <text
     xml:space="preserve"
     style="font-style:normal;font-weight:normal;font-size:21.3333px;line-height:1.25;font-family:sans-serif;white-space:pre;inline-size:0;fill:#000000;fill-opacity:1;stroke:none"
     x="367.20853"
     y="520.09662"
     id="text999"
     transform="translate(18.897529,0.04066503)"><tspan
       id="tspan997"
       x="367.20853"
       y="520.09662" /></text>
  <text
     xml:space="preserve"
     style="font-style:normal;font-weight:normal;font-size:40px;line-height:1.25;font-family:sans-serif;fill:#000000;fill-opacity:1;stroke:none"
     x="376.04568"
     y="518.08588"
     id="text1003"><tspan
       sodipodi:role="line"
       id="tspan1001"
       x="376.04568"
       y="518.08588" /></text>
  <g
     transform="translate(172.84818,252.32033)"
     aria-label="E2D-i3Al by e2d.tw"
     id="text1007"
     style="font-style:normal;font-variant:normal;font-weight:normal;font-stretch:normal;font-size:21.3333px;line-height:23.4375px;font-family:sans-serif;-inkscape-font-specification:'sans-serif, Normal';font-variant-ligatures:normal;font-variant-caps:normal;font-variant-numeric:normal;font-variant-east-asian:normal;fill:#ffffff;fill-opacity:1"
     inkscape:label="logo">
    <path
       d="m 327.3595,474.44077 h 10.8229 v 3.03124 h -6.81249 v 2.89583 h 6.40624 v 3.03125 h -6.40624 v 3.56249 h 7.04165 v 3.03125 H 327.3595 Z"
       style="font-style:normal;font-variant:normal;font-weight:bold;font-stretch:normal;font-size:21.3333px;font-family:sans-serif;-inkscape-font-specification:'sans-serif, Bold';font-variant-ligatures:normal;font-variant-caps:normal;font-variant-numeric:normal;font-variant-east-asian:normal"
       id="path1011" />
    <path
       d="m 346.1303,487.04492 h 6.84374 v 2.94791 h -11.30207 v -2.94791 l 5.67708,-5.01041 q 0.76041,-0.6875 1.125,-1.34375 0.36458,-0.65625 0.36458,-1.36458 0,-1.09375 -0.73958,-1.76042 -0.72917,-0.66666 -1.94792,-0.66666 -0.9375,0 -2.05208,0.40625 -1.11458,0.39583 -2.38541,1.1875 v -3.41667 q 1.35416,-0.44791 2.67708,-0.67708 1.32291,-0.23958 2.59374,-0.23958 2.79167,0 4.33333,1.22916 1.55208,1.22917 1.55208,3.42708 0,1.27083 -0.65625,2.375 -0.65625,1.09375 -2.76041,2.93749 z"
       style="font-style:normal;font-variant:normal;font-weight:bold;font-stretch:normal;font-size:21.3333px;font-family:sans-serif;-inkscape-font-specification:'sans-serif, Bold';font-variant-ligatures:normal;font-variant-caps:normal;font-variant-numeric:normal;font-variant-east-asian:normal"
       id="path1013" />
    <path
       d="m 360.78653,477.47201 v 9.48957 h 1.43749 q 2.45833,0 3.75,-1.21875 1.30208,-1.21874 1.30208,-3.54166 0,-2.31249 -1.29167,-3.52083 -1.29166,-1.20833 -3.76041,-1.20833 z m -4.01041,-3.03124 h 4.22916 q 3.54166,0 5.27082,0.51041 1.73958,0.5 2.97916,1.70833 1.09375,1.05209 1.625,2.42708 0.53125,1.375 0.53125,3.11458 0,1.76042 -0.53125,3.14583 -0.53125,1.375 -1.625,2.42708 -1.25,1.20833 -2.99999,1.71875 -1.75,0.5 -5.24999,0.5 h -4.22916 z"
       style="font-style:normal;font-variant:normal;font-weight:bold;font-stretch:normal;font-size:21.3333px;font-family:sans-serif;-inkscape-font-specification:'sans-serif, Bold';font-variant-ligatures:normal;font-variant-caps:normal;font-variant-numeric:normal;font-variant-east-asian:normal"
       id="path1015" />
    <path
       d="m 374.09901,482.33659 h 6.54165 v 3.03124 h -6.54165 z"
       style="font-style:normal;font-variant:normal;font-weight:bold;font-stretch:normal;font-size:21.3333px;font-family:sans-serif;-inkscape-font-specification:'sans-serif, Bold';font-variant-ligatures:normal;font-variant-caps:normal;font-variant-numeric:normal;font-variant-east-asian:normal"
       id="path1017" />
    <path
       d="m 383.60941,478.32618 h 3.72916 v 11.66665 h -3.72916 z m 0,-4.54166 h 3.72916 v 3.04166 h -3.72916 z"
       style="font-style:normal;font-variant:normal;font-weight:bold;font-stretch:normal;font-size:21.3333px;font-family:sans-serif;-inkscape-font-specification:'sans-serif, Bold';font-variant-ligatures:normal;font-variant-caps:normal;font-variant-numeric:normal;font-variant-east-asian:normal"
       id="path1019" />
    <path
       d="m 399.08855,481.60742 q 1.57291,0.40625 2.38541,1.41667 0.82292,1 0.82292,2.55208 0,2.31249 -1.77083,3.52083 -1.77083,1.19791 -5.16666,1.19791 -1.19792,0 -2.40625,-0.19792 -1.19791,-0.1875 -2.37499,-0.57291 v -3.09375 q 1.125,0.5625 2.22916,0.85417 1.11458,0.28125 2.1875,0.28125 1.59374,0 2.43749,-0.55208 0.85417,-0.55209 0.85417,-1.58334 0,-1.06249 -0.875,-1.60416 -0.86458,-0.55208 -2.5625,-0.55208 h -1.60416 v -2.58333 h 1.6875 q 1.51041,0 2.24999,-0.46875 0.73959,-0.47917 0.73959,-1.44792 0,-0.89583 -0.71875,-1.38541 -0.71875,-0.48958 -2.03125,-0.48958 -0.96875,0 -1.95833,0.21875 -0.98958,0.21875 -1.96875,0.64583 v -2.9375 q 1.1875,-0.33333 2.35417,-0.49999 1.16666,-0.16667 2.29166,-0.16667 3.03124,0 4.53124,1 1.51042,0.98958 1.51042,2.98958 0,1.36458 -0.71875,2.23958 -0.71875,0.86458 -2.125,1.21874 z"
       style="font-style:normal;font-variant:normal;font-weight:bold;font-stretch:normal;font-size:21.3333px;font-family:sans-serif;-inkscape-font-specification:'sans-serif, Bold';font-variant-ligatures:normal;font-variant-caps:normal;font-variant-numeric:normal;font-variant-east-asian:normal"
       id="path1021" />
    <path
       d="m 415.38019,487.1595 h -6.27083 l -0.98958,2.83333 h -4.03124 l 5.76041,-15.55206 h 4.78124 l 5.76041,15.55206 h -4.03125 z m -5.27083,-2.88541 h 4.26041 l -2.12499,-6.18749 z"
       style="font-style:normal;font-variant:normal;font-weight:bold;font-stretch:normal;font-size:21.3333px;font-family:sans-serif;-inkscape-font-specification:'sans-serif, Bold';font-variant-ligatures:normal;font-variant-caps:normal;font-variant-numeric:normal;font-variant-east-asian:normal"
       id="path1023" />
    <path
       d="m 422.27601,473.78452 h 3.72916 v 16.20831 h -3.72916 z"
       style="font-style:normal;font-variant:normal;font-weight:bold;font-stretch:normal;font-size:21.3333px;font-family:sans-serif;-inkscape-font-specification:'sans-serif, Bold';font-variant-ligatures:normal;font-variant-caps:normal;font-variant-numeric:normal;font-variant-east-asian:normal"
       id="path1025" />
    <path
       d="m 443.23431,487.58658 q 1.19792,0 1.82292,-0.875 0.63541,-0.875 0.63541,-2.54166 0,-1.66666 -0.63541,-2.54166 -0.625,-0.875 -1.82292,-0.875 -1.19791,0 -1.84374,0.88541 -0.63542,0.875 -0.63542,2.53125 0,1.65625 0.63542,2.54166 0.64583,0.875 1.84374,0.875 z m -2.47916,-7.55207 q 0.77083,-1.02083 1.70833,-1.5 0.9375,-0.48958 2.15625,-0.48958 2.15624,0 3.54166,1.71875 1.38541,1.70833 1.38541,4.40624 0,2.69791 -1.38541,4.41666 -1.38542,1.70833 -3.54166,1.70833 -1.21875,0 -2.15625,-0.47917 -0.9375,-0.48958 -1.70833,-1.51041 v 1.6875 h -3.72916 v -16.20831 h 3.72916 z"
       style="font-style:normal;font-variant:normal;font-weight:bold;font-stretch:normal;font-size:21.3333px;font-family:sans-serif;-inkscape-font-specification:'sans-serif, Bold';font-variant-ligatures:normal;font-variant-caps:normal;font-variant-numeric:normal;font-variant-east-asian:normal"
       id="path1027" />
    <path
       d="m 450.78638,478.32618 h 3.72916 l 3.13542,7.91665 2.66666,-7.91665 h 3.72916 l -4.90624,12.77081 q -0.73959,1.94792 -1.72917,2.71875 -0.97916,0.78125 -2.59374,0.78125 h -2.15625 v -2.44792 h 1.16666 q 0.94792,0 1.375,-0.30208 0.4375,-0.30208 0.67709,-1.08333 l 0.10416,-0.32292 z"
       style="font-style:normal;font-variant:normal;font-weight:bold;font-stretch:normal;font-size:21.3333px;font-family:sans-serif;-inkscape-font-specification:'sans-serif, Bold';font-variant-ligatures:normal;font-variant-caps:normal;font-variant-numeric:normal;font-variant-east-asian:normal"
       id="path1029" />
    <path
       d="m 485.29674,484.12825 v 1.0625 h -8.71873 q 0.13541,1.3125 0.94791,1.96875 0.8125,0.65625 2.27083,0.65625 1.17708,0 2.40625,-0.34375 1.23958,-0.35417 2.54166,-1.0625 v 2.87499 q -1.32291,0.5 -2.64583,0.75 -1.32291,0.26042 -2.64583,0.26042 -3.16666,0 -4.92707,-1.60416 -1.75,-1.61459 -1.75,-4.52083 0,-2.85416 1.71875,-4.48958 1.72916,-1.63541 4.74999,-1.63541 2.75,0 4.39583,1.65625 1.65624,1.65624 1.65624,4.42707 z m -3.83332,-1.23958 q 0,-1.0625 -0.625,-1.70833 -0.61459,-0.65625 -1.61458,-0.65625 -1.08334,0 -1.76042,0.61458 -0.67708,0.60417 -0.84375,1.75 z"
       style="font-style:normal;font-variant:normal;font-weight:bold;font-stretch:normal;font-size:21.3333px;font-family:sans-serif;-inkscape-font-specification:'sans-serif, Bold';font-variant-ligatures:normal;font-variant-caps:normal;font-variant-numeric:normal;font-variant-east-asian:normal"
       id="path1031" />
    <path
       d="m 492.4634,487.04492 h 6.84374 v 2.94791 h -11.30207 v -2.94791 l 5.67708,-5.01041 q 0.76041,-0.6875 1.125,-1.34375 0.36458,-0.65625 0.36458,-1.36458 0,-1.09375 -0.73958,-1.76042 -0.72917,-0.66666 -1.94792,-0.66666 -0.93749,0 -2.05208,0.40625 -1.11458,0.39583 -2.38541,1.1875 v -3.41667 q 1.35417,-0.44791 2.67708,-0.67708 1.32292,-0.23958 2.59375,-0.23958 2.79166,0 4.33332,1.22916 1.55208,1.22917 1.55208,3.42708 0,1.27083 -0.65625,2.375 -0.65624,1.09375 -2.76041,2.93749 z"
       style="font-style:normal;font-variant:normal;font-weight:bold;font-stretch:normal;font-size:21.3333px;font-family:sans-serif;-inkscape-font-specification:'sans-serif, Bold';font-variant-ligatures:normal;font-variant-caps:normal;font-variant-numeric:normal;font-variant-east-asian:normal"
       id="path1033" />
    <path
       d="m 510.88004,480.03451 v -6.24999 h 3.75 v 16.20831 h -3.75 v -1.6875 q -0.77083,1.03125 -1.69791,1.51041 -0.92708,0.47917 -2.14583,0.47917 -2.15625,0 -3.54166,-1.70833 -1.38542,-1.71875 -1.38542,-4.41666 0,-2.69791 1.38542,-4.40624 1.38541,-1.71875 3.54166,-1.71875 1.20833,0 2.13541,0.48958 0.9375,0.47917 1.70833,1.5 z m -2.45833,7.55207 q 1.19792,0 1.82292,-0.875 0.63541,-0.875 0.63541,-2.54166 0,-1.66666 -0.63541,-2.54166 -0.625,-0.875 -1.82292,-0.875 -1.1875,0 -1.82291,0.875 -0.625,0.875 -0.625,2.54166 0,1.66666 0.625,2.54166 0.63541,0.875 1.82291,0.875 z"
       style="font-style:normal;font-variant:normal;font-weight:bold;font-stretch:normal;font-size:21.3333px;font-family:sans-serif;-inkscape-font-specification:'sans-serif, Bold';font-variant-ligatures:normal;font-variant-caps:normal;font-variant-numeric:normal;font-variant-east-asian:normal"
       id="path1035" />
    <path
       d="m 518.61961,485.96158 h 3.75 v 4.03125 h -3.75 z"
       style="font-style:normal;font-variant:normal;font-weight:bold;font-stretch:normal;font-size:21.3333px;font-family:sans-serif;-inkscape-font-specification:'sans-serif, Bold';font-variant-ligatures:normal;font-variant-caps:normal;font-variant-numeric:normal;font-variant-east-asian:normal"
       id="path1037" />
    <path
       d="m 530.43209,475.01368 v 3.3125 h 3.84374 v 2.66666 h -3.84374 v 4.94791 q 0,0.8125 0.32292,1.10417 0.32291,0.28124 1.28124,0.28124 h 1.91667 v 2.66667 h -3.19791 q -2.20833,0 -3.13541,-0.91667 -0.91667,-0.92708 -0.91667,-3.13541 v -4.94791 h -1.85416 v -2.66666 h 1.85416 v -3.3125 z"
       style="font-style:normal;font-variant:normal;font-weight:bold;font-stretch:normal;font-size:21.3333px;font-family:sans-serif;-inkscape-font-specification:'sans-serif, Bold';font-variant-ligatures:normal;font-variant-caps:normal;font-variant-numeric:normal;font-variant-east-asian:normal"
       id="path1039" />
    <path
       d="m 535.52583,478.32618 h 3.62499 l 1.95833,8.04165 1.96875,-8.04165 h 3.11458 l 1.95833,7.95832 1.96875,-7.95832 h 3.62499 l -3.07291,11.66665 h -4.07291 l -1.96875,-8.02082 -1.95833,8.02082 h -4.07291 z"
       style="font-style:normal;font-variant:normal;font-weight:bold;font-stretch:normal;font-size:21.3333px;font-family:sans-serif;-inkscape-font-specification:'sans-serif, Bold';font-variant-ligatures:normal;font-variant-caps:normal;font-variant-numeric:normal;font-variant-east-asian:normal"
       id="path1041" />
    <g
       style="fill-rule:evenodd;stroke-width:28.222;stroke-linejoin:round"
       id="g1187"
       transform="matrix(0.03779527,0,0,0.03779527,-56.330812,-55.492398)">
      <g
         id="g50">
        <g
           class="Master_Slide"
           id="id2">
          <g
             class="Background"
             id="bg-id2" />
          <g
             class="BackgroundObjects"
             id="bo-id2" />
        </g>
      </g>
      <g
         transform="matrix(0.22489999,0,0,0.22489999,14732.617,12578.965)"
         id="g55"
         class="SlideGroup">
        <g
           id="g57">
          <g
             id="container-id1"
             transform="translate(-8.9742835,-116.66569)">
            <g
               class="Page"
               id="g61">
              <g
                 id="g65"
                 class="com.sun.star.drawing.ClosedBezierShape">
                <rect
                   class="BoundingBox"
                   x="1915"
                   y="2517"
                   width="2630"
                   height="2631"
                   id="rect68"
                   style="fill:none;stroke:none" />
              </g>
              <g
                 id="g1227">
                <path
                   style="font-style:normal;font-variant:normal;font-weight:normal;font-stretch:normal;font-size:21.3333px;line-height:23.4375px;font-family:sans-serif;-inkscape-font-specification:'sans-serif, Normal';font-variant-ligatures:normal;font-variant-caps:normal;font-variant-numeric:normal;font-variant-east-asian:normal;fill:#ffffff;fill-opacity:0.5;fill-rule:evenodd;stroke:none;stroke-width:28.222;stroke-linejoin:round"
                   inkscape:connector-curvature="0"
                   id="path70"
                   d="m 4438.2824,3683.026 c -74,-692 -675,-1205 -1371,-1173 -695,33 -1243,603 -1250,1299 196,-50 392,-100 589,-150 150,-667 1047,-794 1376,-194 -653,165 -1306,331 -1958,497 73,692 674,1207 1370,1173 695,-33 1244,-602 1251,-1298 -197,50 -393,99 -589,149 -150,668 -1048,794 -1377,194 654,-165 1307,-331 1960,-497 -1,-5 -2,-9 -3,-14 z" />
                <g
                   transform="translate(-98.717119,-8.9742835)"
                   class="com.sun.star.drawing.ClosedBezierShape"
                   id="g72">
                  <g
                     id="id4">
                    <rect
                       class="BoundingBox"
                       x="601"
                       y="1"
                       width="5258"
                       height="6460"
                       id="rect75"
                       style="fill:none;stroke:none" />
                    <path
                       d="m 5026,1 c -105,0 -191,85 -191,191 v 1558 2082 c 0,749 -520,1399 -1251,1565 -730,165 -1478,-197 -1802,-873 -323,-676 -135,-1487 454,-1951 588,-465 1419,-460 2002,10 125,102 314,12 313,-150 -2,-255 -4,-510 -6,-765 0,-83 -30,-130 -104,-168 C 3395,957 2116,1176 1310,2036 506,2897 373,4189 983,5196 1595,6203 2803,6680 3938,6362 5074,6045 5858,5011 5858,3832 V 767 C 5858,344 5515,1 5092,1 Z"
                       id="path77"
                       inkscape:connector-curvature="0"
                       style="fill:#265c9c;stroke:none" />
                  </g>
                </g>
              </g>
            </g>
          </g>
        </g>
      </g>
    </g>
  </g>
  <line
     id="line64-7"
     stroke-width="0.0862523"
     stroke-linejoin="round"
     stroke-linecap="round"
     stroke="#ffffff"
     fill="none"
     y2="718.29919"
     x2="774.97119"
     y1="718.29919"
     x1="737.19684"
     style="stroke-width:0.377953;stroke-dasharray:none" />
</svg>
